<svg width="29" height="29" viewBox="0 0 29 29" fill="none" xmlns="http://www.w3.org/2000/svg">
<ellipse cx="14.4556" cy="14.5" rx="14.4556" ry="14.5" fill="#00A3FF"/>
<path d="M15.854 21.4814C15.7809 21.482 15.7083 21.4637 15.6406 21.4276C15.5729 21.3916 15.5113 21.3384 15.4593 21.2712C15.4072 21.2038 15.3659 21.1237 15.3377 21.0353C15.3095 20.947 15.2949 20.8523 15.2949 20.7566C15.2949 20.6609 15.3095 20.5661 15.3377 20.4778C15.3659 20.3895 15.4072 20.3093 15.4593 20.2419L20.073 14.2329L15.4593 8.22391C15.3547 8.08741 15.2959 7.90229 15.2959 7.70926C15.2959 7.51623 15.3547 7.33111 15.4593 7.19462C15.564 7.05813 15.706 6.98145 15.854 6.98145C16.002 6.98145 16.144 7.05813 16.2487 7.19462L21.2514 13.7183C21.3035 13.7857 21.3449 13.8658 21.3731 13.9542C21.4013 14.0425 21.4158 14.1372 21.4158 14.2329C21.4158 14.3286 21.4013 14.4234 21.3731 14.5117C21.3449 14.6 21.3035 14.6802 21.2514 14.7476L16.2487 21.2712C16.1967 21.3384 16.1351 21.3916 16.0674 21.4276C15.9997 21.4637 15.9272 21.482 15.854 21.4814Z" fill="white"/>
<path d="M20.8565 14.9575H7.51582C7.3684 14.9575 7.22701 14.8811 7.12277 14.7452C7.01852 14.6093 6.95996 14.4249 6.95996 14.2327C6.95996 14.0404 7.01852 13.8561 7.12277 13.7201C7.22701 13.5842 7.3684 13.5078 7.51582 13.5078H20.8565C21.0039 13.5078 21.1453 13.5842 21.2496 13.7201C21.3538 13.8561 21.4124 14.0404 21.4124 14.2327C21.4124 14.4249 21.3538 14.6093 21.2496 14.7452C21.1453 14.8811 21.0039 14.9575 20.8565 14.9575Z" fill="white"/>
</svg>
