<svg width="42" height="58" viewBox="0 0 42 58" fill="none" xmlns="http://www.w3.org/2000/svg">
<path d="M41.4107 9.30846C40.8786 8.37975 39.6941 8.05942 38.7667 8.58642L29.8917 13.6588L22.8327 16.0109L6.7902 21.7278V12.8528C6.7902 11.7833 5.9222 10.9153 4.8527 10.9153C3.7832 10.9153 2.9152 11.7833 2.9152 12.8528V24.4778C2.9152 25.1081 3.22133 25.6984 3.7367 26.0627C4.06866 26.2965 4.45875 26.4153 4.8527 26.4153C5.07229 26.4153 5.29316 26.3791 5.50499 26.3029L15.3733 23.943C15.974 25.8017 16.2917 28.823 14.5415 32.8749L11.2103 41.4361L1.54862 47.4759C0.337037 48.2328 -0.0297964 49.8255 0.725829 51.0358C1.21666 51.8198 2.05754 52.2499 2.91908 52.2499C3.38666 52.2499 3.8607 52.1233 4.28566 51.8572L14.619 45.3989C15.0569 45.1251 15.4017 44.7272 15.611 44.2571L19.7082 35.4583C19.7082 35.4583 19.2755 39.4443 18.4901 45.0915L14.7507 53.8154C14.1876 55.1278 14.796 56.6455 16.107 57.2073C16.439 57.3494 16.7838 57.4179 17.1235 57.4179C18.1259 57.4166 19.0804 56.8302 19.4989 55.8511L23.3739 46.8094C23.4643 46.5989 23.5263 46.378 23.5586 46.1507C23.5586 46.1507 26.1678 34.1123 26.1678 27.7083C26.1678 27.5675 25.7454 22.8748 25.1861 21.0588L31.3009 17.2742C31.4223 17.2341 40.6913 11.9525 40.6913 11.9525C41.6187 11.4216 41.9416 10.2372 41.4107 9.30846Z" fill="#FFBA57"/>
<path d="M14.5415 32.8749L12.8882 37.1219L17.9838 39.1602L19.7082 35.4583C19.7082 35.4583 19.548 36.9269 19.2483 39.3333H24.8619C25.2107 37.295 25.553 35.0333 25.8022 32.8749L14.5415 32.8749Z" fill="#00ACC1"/>
<path d="M15.1873 5.74992C17.6841 5.74992 19.7082 7.77267 19.7082 10.2708C19.7082 12.7688 17.6841 14.7916 15.1873 14.7916C12.6892 14.7916 10.6665 12.7688 10.6665 10.2708C10.6665 7.77267 12.6892 5.74992 15.1873 5.74992Z" fill="#FFBA57"/>
<path d="M31.979 0.583252C34.4758 0.583252 36.4998 2.606 36.4998 5.10409C36.4998 7.60217 34.4758 9.62492 31.979 9.62492C29.4809 9.62492 27.4582 7.60217 27.4582 5.10409C27.4582 2.606 29.4809 0.583252 31.979 0.583252Z" fill="#1565C0"/>
<path d="M19.2483 39.3333H21.7529L22.2915 34.1666L19.7082 35.4583C19.7082 35.4583 19.548 36.9269 19.2483 39.3333Z" fill="#0097A7"/>
<path d="M14.5415 32.8749L25.8035 32.8749C26.0335 30.8909 26.1368 29.0141 26.1523 27.7083C26.204 23.3153 24.9381 19.7774 23.6787 17.3775C23.308 16.6283 23.0355 16.2202 22.834 16.0122L22.285 16.1956L12.6892 19.6224C13.4177 20.5899 14.2974 21.786 14.2974 21.786C14.3258 21.8221 17.6092 25.7708 14.5415 32.8749Z" fill="#FF754C"/>
</svg>
