<svg width="62" height="62" viewBox="0 0 62 62" fill="none" xmlns="http://www.w3.org/2000/svg">
<path d="M41.1956 0.120522L30.9656 5.72135V0L41.1956 0.120522ZM62 23.0025L60.0883 22.3999C50.214 19.5514 40.896 15.045 32.5328 9.07359L31 7.92002L29.4328 9.14246C21.0519 15.0891 11.723 19.5718 1.84278 22.3999L0 23.0025V32.8027H4.63278L2.48 62H59.4167L57.6944 32.8199H62V23.0025ZM5.16667 26.8936C14.3506 24.024 23.0568 19.8055 31 14.3766C38.9432 19.8055 47.6494 24.024 56.8333 26.8936V27.6581H5.16667V26.8936ZM53.94 56.8348H41.9998C39.9458 56.8302 37.9772 56.0125 36.5248 54.5604C35.0724 53.1084 34.2544 51.1404 34.2498 49.0869V36.1738C34.2498 36.1738 27.8483 52.0483 27.7794 52.2033C27.1694 53.5806 26.1726 54.7514 24.9101 55.5735C23.6475 56.3956 22.1734 56.8338 20.6667 56.8348H8.09444L9.81667 32.6219H52.545L53.94 56.8348Z" fill="#F2A007"/>
</svg>
