<svg width="50" height="50" viewBox="0 0 50 50" fill="none" xmlns="http://www.w3.org/2000/svg">
<path d="M25.0273 11.1284C27.8537 11.1284 28.8215 11.1376 29.749 11.1704L30.7305 11.2114C31.9831 11.2687 32.8711 11.4484 33.627 11.7075L33.9434 11.8237C34.7971 12.1558 35.5119 12.5935 36.2314 13.313C36.8612 13.9427 37.2756 14.5689 37.5918 15.2876L37.7217 15.6011C38.0026 16.3252 38.2103 17.1471 38.3018 18.2993L38.333 18.8149C38.4001 20.2849 38.417 20.7484 38.417 24.5181C38.417 27.3451 38.4078 28.3126 38.375 29.2397L38.333 30.2212C38.2676 31.6526 38.0426 32.608 37.7217 33.4341C37.3896 34.2879 36.9511 35.0035 36.2314 35.7231C35.602 36.3525 34.9762 36.7664 34.2578 37.0825L33.9434 37.2124C33.2192 37.4933 32.3974 37.7011 31.2451 37.7925L30.7305 37.8247C29.2603 37.8918 28.7958 37.9077 25.0273 37.9077C22.1997 37.9077 21.232 37.8985 20.3047 37.8657L19.3232 37.8247C18.0706 37.7674 17.1826 37.5877 16.4268 37.3286L16.1104 37.2124C15.3633 36.9218 14.7224 36.5505 14.0918 35.98L13.8223 35.7231C13.1923 35.0921 12.779 34.4665 12.4639 33.7485L12.334 33.4351C12.0529 32.7108 11.8453 31.8886 11.7539 30.7358L11.7217 30.2212C11.6546 28.7512 11.6387 28.2878 11.6387 24.5181C11.6387 21.6902 11.6478 20.7228 11.6807 19.7954L11.7217 18.8149C11.779 17.562 11.9586 16.6735 12.2178 15.9175L12.334 15.6011C12.6648 14.7477 13.1026 14.0326 13.8223 13.313C14.452 12.6833 15.0782 12.2698 15.7969 11.9536L16.1104 11.8237C16.8345 11.5428 17.6563 11.3351 18.8086 11.2437L19.3232 11.2114C20.7935 11.1443 21.2586 11.1284 25.0273 11.1284ZM25.0273 12.6304C22.245 12.6304 21.2967 12.6379 20.374 12.6704L19.3916 12.7124C18.1595 12.7684 17.4016 12.957 16.8701 13.144L16.6553 13.2241C15.9421 13.5011 15.4209 13.8403 14.8857 14.3755C14.4175 14.8437 14.0996 15.3014 13.8418 15.8853L13.7344 16.144V16.145C13.5262 16.6831 13.2867 17.4713 13.2227 18.8804C13.1545 20.3566 13.1406 20.8051 13.1406 24.5151C13.1406 27.2978 13.1493 28.2461 13.1816 29.1685L13.2227 30.1499C13.2787 31.3836 13.4691 32.1416 13.6553 32.6724L13.7344 32.8862V32.8872C13.9767 33.5114 14.2669 33.9884 14.6943 34.4565L14.8857 34.6567H14.8867C15.3557 35.1245 15.8127 35.4429 16.3965 35.7007L16.6553 35.8081C17.1273 35.9919 17.7903 36.1973 18.8926 36.2886L19.3926 36.3198C20.8683 36.3867 21.3166 36.4019 25.0273 36.4019C27.8105 36.4019 28.7581 36.3932 29.6807 36.3608L30.6611 36.3198C31.8942 36.2638 32.6529 36.0753 33.1846 35.8882L33.3984 35.8081C34.0226 35.5657 34.4996 35.2755 34.9678 34.8481L35.168 34.6567C35.6377 34.187 35.9554 33.729 36.2129 33.145L36.3193 32.8872C36.5032 32.4152 36.7086 31.7522 36.7998 30.6499L36.8311 30.1499C36.898 28.6742 36.9131 28.2258 36.9131 24.5151C36.9131 21.732 36.9045 20.7844 36.8721 19.8618L36.8311 18.8813C36.7751 17.6489 36.5865 16.8905 36.3994 16.3589L36.3193 16.144C36.077 15.5211 35.7876 15.0437 35.3604 14.5757L35.168 14.3755C34.6985 13.906 34.2407 13.5889 33.6572 13.3315L33.3984 13.2241C32.859 13.0141 32.0698 12.7764 30.6611 12.7124H30.6621C29.1859 12.6442 28.7374 12.6304 25.0273 12.6304Z" fill="#0597F2" stroke="#0597F2"/>
<path d="M25.0273 17.8853C28.6895 17.8853 31.6592 20.8549 31.6592 24.5171C31.6591 28.1792 28.6895 31.1488 25.0273 31.1489C21.3651 31.1489 18.3956 28.1793 18.3955 24.5171C18.3955 20.8548 21.3651 17.8853 25.0273 17.8853ZM25.0273 19.3862C22.1949 19.3862 19.8975 21.6836 19.8975 24.5161C19.8977 27.3484 22.195 29.645 25.0273 29.645C27.8596 29.6449 30.156 27.3484 30.1562 24.5161C30.1562 21.6837 27.8598 19.3863 25.0273 19.3862Z" fill="#0597F2" stroke="#0597F2"/>
<path d="M32.4404 15.936C33.085 15.936 33.6064 16.4583 33.6064 17.1021C33.6064 17.7456 33.084 18.2681 32.4404 18.2681C31.7959 18.268 31.2744 17.7459 31.2744 17.1021C31.2745 16.4585 31.7969 15.9361 32.4404 15.936Z" fill="#0597F2" stroke="#0597F2"/>
<circle cx="25" cy="25" r="23.5" stroke="#0597F2" stroke-width="3"/>
</svg>
