<svg width="27" height="21" viewBox="0 0 27 21" fill="none" xmlns="http://www.w3.org/2000/svg">
<path d="M1.31251 11.8126L21.7693 11.8126L14.8222 18.7597C14.3096 19.2722 14.3096 20.1031 14.8222 20.6156C15.3347 21.1281 16.1659 21.1281 16.6784 20.6156L25.866 11.428C26.3785 10.9155 26.3785 10.0844 25.866 9.57214L16.6784 0.384575C16.4221 0.128308 16.0861 1.16359e-05 15.7501 1.16319e-05C15.4144 1.16279e-05 15.0784 0.128308 14.8222 0.384575C14.3096 0.89711 14.3096 1.72826 14.8222 2.24047L21.7693 9.18758L1.31251 9.18758C0.588004 9.18758 1.33854e-07 9.77526 1.2521e-07 10.5001C1.16567e-07 11.2249 0.587676 11.8126 1.31251 11.8126Z" fill="white"/>
</svg>
