<svg width="60" height="60" viewBox="0 0 60 60" fill="none" xmlns="http://www.w3.org/2000/svg">
<path d="M60 42V3C60 1.125 58.7143 0 56.5714 0H12.8571C5.57143 0 0 4.875 0 11.25V48.75C0 55.125 5.57143 60 12.8571 60H56.5714C58.2857 60 60 58.875 60 57V55.125C60 54.375 59.5714 53.625 58.7143 52.875C58.2857 51 58.2857 45.75 58.7143 44.25C59.5714 43.875 60 43.125 60 42ZM19.2857 16.875C19.2857 15.8391 20.2446 15 21.4286 15H27.8571V9.375C27.8571 8.33906 28.8161 7.5 30 7.5H34.2857C35.4696 7.5 36.4286 8.33906 36.4286 9.375V15H42.8571C44.0411 15 45 15.8391 45 16.875V20.625C45 21.6609 44.0411 22.5 42.8571 22.5H36.4286V35.625C36.4286 36.6609 35.4696 37.5 34.2857 37.5H30C28.8161 37.5 27.8571 36.6609 27.8571 35.625V22.5H21.4286C20.2446 22.5 19.2857 21.6609 19.2857 20.625V16.875ZM51 52.5H12.8571C10.2857 52.5 8.57143 51 8.57143 48.75C8.57143 46.5 10.7143 45 12.8571 45H51V52.5Z" fill="white"/>
</svg>
