<svg width="54" height="59" viewBox="0 0 54 59" fill="none" xmlns="http://www.w3.org/2000/svg">
<path d="M47.0089 26.5829H33.75V15.054H29.4107C30.7539 13.2675 31.4756 11.0933 31.4663 8.86118C31.4663 5.54181 29.8898 2.42288 27.3521 0.721759L26.2755 0L25.199 0.721759C22.6607 2.42312 21.0847 5.54193 21.0847 8.86118C21.0757 11.0933 21.7976 13.2675 23.1409 15.0539H18.3214V26.5828H6.99107C5.13757 26.5849 3.36059 27.3194 2.04996 28.6253C0.739339 29.9311 0.00210556 31.7015 0 33.5482V55.157C0.00114852 56.1759 0.407894 57.1527 1.131 57.8732C1.85411 58.5936 2.83452 58.9989 3.85714 59H50.1429C51.1655 58.9989 52.1459 58.5936 52.869 57.8732C53.5921 57.1527 53.9989 56.1759 54 55.157V33.5483C53.9979 31.7016 53.2607 29.9312 51.95 28.6254C50.6394 27.3196 48.8624 26.585 47.0089 26.5829ZM26.2755 4.90316C27.118 5.94604 27.6092 7.36098 27.6092 8.8613C27.6092 10.3616 27.118 11.7767 26.2755 12.8194C25.433 11.7767 24.9419 10.3616 24.9419 8.86118C24.9419 7.36074 25.433 5.94604 26.2755 4.90316ZM22.1786 18.897H29.8929V26.5829H22.1786V18.897ZM3.85714 33.5483C3.8581 32.7205 4.18859 31.9269 4.77611 31.3415C5.36362 30.7561 6.1602 30.4269 6.99107 30.4259H47.0089C47.8398 30.4269 48.6364 30.7561 49.2239 31.3415C49.8114 31.9269 50.1419 32.7205 50.1429 33.5483V37.3405L47.5393 38.4851C47.0301 38.7083 46.4799 38.8236 45.9236 38.8236C45.3673 38.8236 44.817 38.7083 44.3078 38.4851L39.7768 36.4931L35.2446 38.485C34.7354 38.7082 34.1852 38.8235 33.6289 38.8235C33.0725 38.8235 32.5223 38.7082 32.0131 38.485L27.4821 36.493L22.95 38.4849C22.4408 38.7081 21.8905 38.8234 21.3342 38.8234C20.7779 38.8234 20.2276 38.7081 19.7184 38.4849L15.1875 36.4931L10.6562 38.4849C10.147 38.7081 9.59675 38.8234 9.04042 38.8234C8.48409 38.8234 7.93384 38.7081 7.42464 38.4849L3.85714 36.9169V33.5483ZM50.1429 55.157H3.85714V41.1173L5.86744 42.001C6.86732 42.4393 7.94778 42.6657 9.04018 42.6657C10.1326 42.6657 11.213 42.4393 12.2129 42.001L15.1875 40.6934L18.1622 42.001C19.1621 42.4393 20.2425 42.6657 21.3349 42.6657C22.4273 42.6657 23.5077 42.4393 24.5076 42.001L27.4821 40.6934L30.4566 42.001C31.4564 42.4393 32.5369 42.6657 33.6292 42.6657C34.7216 42.6657 35.802 42.4393 36.8018 42.001L39.7768 40.6934L42.7514 42.0011C43.7512 42.4394 44.8316 42.6657 45.9239 42.6657C47.0163 42.6657 48.0967 42.4394 49.0965 42.0011L50.1443 41.5405L50.1453 55.157H50.1429Z" fill="white"/>
</svg>
