<svg width="60" height="60" viewBox="0 0 60 60" fill="none" xmlns="http://www.w3.org/2000/svg">
<path d="M58.8542 52.043H53.7022C54.1148 51.0523 54.2538 49.924 54.0985 48.828C53.9432 47.732 53.5018 46.7275 52.8409 45.9657C52.8705 45.9293 52.9015 45.8963 52.9298 45.8599C53.3275 45.3729 53.6413 44.7928 53.8526 44.1542C54.0639 43.5156 54.1685 42.8314 54.1601 42.1423C54.1517 41.4532 54.0304 40.7731 53.8036 40.1426C53.5767 39.512 53.2489 38.9438 52.8395 38.4716C52.8705 38.4369 52.9015 38.4022 52.9298 38.3658C53.3274 37.8789 53.6412 37.299 53.8525 36.6605C54.0638 36.0221 54.1684 35.338 54.16 34.649C54.1515 33.96 54.0303 33.2801 53.8035 32.6497C53.5767 32.0193 53.2488 31.4512 52.8395 30.9791L52.9298 30.8733C53.3281 30.3865 53.6426 29.8064 53.8544 29.1675C54.0662 28.5286 54.171 27.844 54.1627 27.1544C54.1544 26.4648 54.0331 25.7843 53.806 25.1533C53.579 24.5224 53.2507 23.9539 52.8409 23.4817L52.9312 23.3759C53.5186 22.6559 53.9189 21.7384 54.0812 20.7394C54.2436 19.7404 54.1609 18.7049 53.8435 17.7636C53.5261 16.8223 52.9883 16.0175 52.2981 15.451C51.6079 14.8844 50.7962 14.5816 49.9656 14.5807H42.0705V10.3187C42.0698 9.39115 41.769 8.50187 41.2343 7.84601C40.6995 7.19015 39.9744 6.82131 39.2182 6.82043H36.1178C35.9839 4.95825 35.286 3.22514 34.1619 1.96269C33.0377 0.700231 31.5687 0 30.0445 0C28.5202 0 27.0513 0.700231 25.9271 1.96269C24.8029 3.22514 24.1051 4.95825 23.9712 6.82043H20.8708C20.1146 6.82174 19.3898 7.19073 18.8551 7.84649C18.3204 8.50226 18.0195 9.39128 18.0185 10.3187V14.5791H10.0371C9.19473 14.5769 8.37135 14.8857 7.67399 15.4652C6.97663 16.0446 6.43755 16.868 6.12684 17.8283C5.81614 18.7885 5.74818 19.8412 5.93179 20.8494C6.11541 21.8577 6.54212 22.7749 7.15643 23.4817C7.12678 23.5164 7.09577 23.5495 7.06612 23.5859C6.66848 24.0729 6.35468 24.6529 6.14335 25.2915C5.93201 25.9302 5.82746 26.6143 5.83588 27.3035C5.8443 27.9926 5.96554 28.6726 6.19239 29.3032C6.41923 29.9338 6.74707 30.502 7.15643 30.9742C7.12678 31.0089 7.09577 31.042 7.06612 31.0783C6.66848 31.5653 6.35468 32.1454 6.14335 32.784C5.93201 33.4226 5.82746 34.1068 5.83588 34.7959C5.8443 35.4851 5.96554 36.1651 6.19239 36.7957C6.41923 37.4262 6.74707 37.9945 7.15643 38.4666L7.06612 38.5724C6.6684 39.0594 6.35455 39.6395 6.14322 40.2782C5.9319 40.9169 5.82741 41.6012 5.83596 42.2904C5.84451 42.9796 5.96593 43.6597 6.193 44.2902C6.42007 44.9207 6.74816 45.4888 7.15778 45.9607C6.49543 46.7236 6.05335 47.73 5.89821 48.828C5.74308 49.9261 5.88332 51.0562 6.29777 52.0479H1.14578C0.842013 52.0484 0.550785 52.1966 0.335986 52.46C0.121188 52.7235 0.000356749 53.0806 0 53.4532C0.00142678 55.1887 0.564095 56.8526 1.56457 58.08C2.56504 59.3073 3.9216 59.9978 5.33666 60H54.6633C56.0784 59.9978 57.435 59.3073 58.4354 58.08C59.4359 56.8526 59.9986 55.1887 60 53.4532C60.0004 53.2683 59.971 53.0851 59.9136 52.9142C59.8562 52.7432 59.7719 52.5878 59.6654 52.4568C59.559 52.3258 59.4326 52.2219 59.2934 52.1509C59.1542 52.0799 59.005 52.0432 58.8542 52.043ZM51.8717 34.7237C51.8713 35.3447 51.6699 35.9402 51.3117 36.3791C50.9536 36.8181 50.4679 37.0647 49.9616 37.0647H39.7088V32.3761H49.9616C50.2127 32.3763 50.4613 32.4372 50.6933 32.5554C50.9252 32.6735 51.1359 32.8465 51.3133 33.0645C51.4906 33.2825 51.6313 33.5413 51.7271 33.826C51.8229 34.1107 51.872 34.4157 51.8717 34.7237ZM51.8717 27.2313C51.8713 27.8523 51.6699 28.4477 51.3117 28.8867C50.9536 29.3256 50.4679 29.5722 49.9616 29.5722H39.7088V24.8837H49.9616C50.4678 24.8841 50.9533 25.1308 51.3114 25.5697C51.6694 26.0086 51.871 26.6038 51.8717 27.2246V27.2313ZM51.8717 19.7388C51.8713 20.3598 51.6699 20.9552 51.3117 21.3942C50.9536 21.8332 50.4679 22.0798 49.9616 22.0798H39.7088V17.3896H49.9616C50.4681 17.39 50.9537 17.6369 51.3118 18.0762C51.67 18.5154 51.8713 19.111 51.8717 19.7322V19.7388ZM30.0411 2.8163C30.9575 2.81613 31.8434 3.22072 32.5365 3.95602C33.2296 4.69133 33.6836 5.70817 33.8155 6.82043H33.2075C33.0168 5.97136 32.6044 5.22237 32.0335 4.68818C31.4626 4.154 30.7646 3.86406 30.0465 3.8628C29.9214 3.8628 29.8014 3.92376 29.7129 4.03227C29.6244 4.14079 29.5747 4.28797 29.5747 4.44143C29.5747 4.59489 29.6244 4.74207 29.7129 4.85058C29.8014 4.9591 29.9214 5.02006 30.0465 5.02006C30.5127 5.02079 30.968 5.19266 31.3538 5.51352C31.7396 5.83439 32.0383 6.28956 32.2114 6.82043H26.2802C26.4118 5.71098 26.8638 4.69637 27.5541 3.96142C28.2444 3.22647 29.127 2.82009 30.0411 2.8163ZM20.3033 10.3187C20.3037 10.1364 20.3628 9.96173 20.4679 9.83285C20.573 9.70396 20.7154 9.63136 20.8641 9.63093H39.2182C39.3669 9.63093 39.5095 9.70339 39.6147 9.83236C39.7199 9.96134 39.7789 10.1363 39.7789 10.3187V14.5791H38.5658C38.262 14.5795 37.9707 14.7277 37.756 14.9911C37.5412 15.2546 37.4203 15.6117 37.42 15.9843V37.6417C37.4204 37.7398 37.4048 37.837 37.3741 37.9277C37.3421 38.017 37.2964 38.0978 37.2393 38.1657C37.2113 38.2002 37.1806 38.2312 37.1477 38.2583C37.0312 38.353 36.8918 38.3955 36.7528 38.3786C36.6137 38.3617 36.4838 38.2866 36.3847 38.1657C36.328 38.0974 36.2823 38.0167 36.2499 37.9277C36.2188 37.8371 36.2028 37.7399 36.2027 37.6417V15.9843C36.2027 15.6116 36.082 15.2542 35.8671 14.9906C35.6523 14.7271 35.3608 14.5791 35.057 14.5791H31.629C31.3253 14.5795 31.034 14.7277 30.8192 14.9911C30.6044 15.2546 30.4836 15.6117 30.4833 15.9843V30.3245C30.4833 30.341 30.4833 30.3559 30.4833 30.3707C30.4818 30.4321 30.4727 30.4929 30.4563 30.5509C30.4271 30.6633 30.3763 30.7654 30.308 30.8485C30.28 30.883 30.2493 30.914 30.2164 30.9411C30.117 31.0225 30.0002 31.0657 29.8807 31.0651C29.8352 31.0644 29.79 31.0572 29.7459 31.0436C29.6368 31.0129 29.5369 30.9453 29.4574 30.8485C29.432 30.8197 29.4081 30.7887 29.386 30.7559C29.3486 30.693 29.3195 30.6233 29.2997 30.5493C29.2842 30.4904 29.2751 30.4293 29.2728 30.3674C29.2734 30.352 29.2734 30.3366 29.2728 30.3211V15.9843C29.2728 15.6116 29.152 15.2542 28.9372 14.9906C28.7223 14.7271 28.4309 14.5791 28.127 14.5791H22.3576V11.1354C22.3576 10.9819 22.3079 10.8347 22.2194 10.7262C22.131 10.6177 22.011 10.5567 21.8858 10.5567C21.7607 10.5567 21.6407 10.6177 21.5522 10.7262C21.4637 10.8347 21.414 10.9819 21.414 11.1354V14.5791H20.3033V10.3187ZM33.9179 22.0732H32.7748V17.3896H33.9179V22.0732ZM32.7748 24.8837H33.9179V29.5656H32.7748V24.8837ZM8.12698 19.7322C8.12698 19.1109 8.32822 18.515 8.68643 18.0757C9.04464 17.6364 9.53048 17.3896 10.0371 17.3896H26.9839V22.0732H10.0371C9.53082 22.0727 9.0454 21.826 8.6873 21.3871C8.32921 20.9482 8.12769 20.3531 8.12698 19.7322ZM8.12698 27.2246C8.1268 26.917 8.1761 26.6124 8.27204 26.3281C8.36799 26.0439 8.5087 25.7857 8.68612 25.5682C8.86354 25.3508 9.07419 25.1784 9.306 25.0609C9.53782 24.9435 9.78625 24.8832 10.0371 24.8837H26.9839V29.5656H10.0371C9.53082 29.5652 9.0454 29.3185 8.6873 28.8796C8.32921 28.4407 8.12769 27.8455 8.12698 27.2246ZM8.12698 34.7171C8.1268 34.4095 8.1761 34.1048 8.27204 33.8206C8.36799 33.5364 8.5087 33.2781 8.68612 33.0607C8.86354 32.8433 9.07419 32.6709 9.306 32.5534C9.53782 32.4359 9.78625 32.3757 10.0371 32.3761H27.5163L27.5379 32.4092C27.573 32.467 27.608 32.5233 27.6444 32.5745L27.6848 32.634C27.732 32.7018 27.7805 32.7679 27.8318 32.8308C28.3159 33.4262 28.9569 33.7911 29.6402 33.8602C30.3235 33.9292 31.0046 33.698 31.5616 33.2077C31.6919 33.0956 31.8141 32.97 31.9269 32.8324C31.9795 32.7679 32.0294 32.7018 32.0766 32.6324L32.113 32.5795C32.1521 32.5216 32.1911 32.4604 32.2275 32.3976L32.2437 32.3728H33.9179V37.0548H10.0371C9.53222 37.0543 9.04801 36.809 8.69015 36.3722C8.33228 35.9355 8.12983 35.3429 8.12698 34.7237V34.7171ZM34.5622 39.8686L34.569 39.8785C34.631 39.9711 34.697 40.0603 34.7658 40.1463C35.2738 40.7689 35.9522 41.1379 36.6695 41.1819C37.3868 41.2259 38.0918 40.9417 38.648 40.3844C38.7225 40.3099 38.7936 40.2304 38.861 40.1463C38.9311 40.0603 38.9958 39.9711 39.0578 39.8785L39.0658 39.8686H49.9616C50.4678 39.8686 50.9533 40.1152 51.3113 40.5542C51.6692 40.9932 51.8703 41.5887 51.8703 42.2095C51.8703 42.8304 51.6692 43.4259 51.3113 43.8649C50.9533 44.3039 50.4678 44.5505 49.9616 44.5505H10.0371C9.53084 44.5505 9.04534 44.3039 8.68738 43.8649C8.32943 43.4259 8.12833 42.8304 8.12833 42.2095C8.12833 41.5887 8.32943 40.9932 8.68738 40.5542C9.04534 40.1152 9.53084 39.8686 10.0371 39.8686H34.5622ZM8.12833 49.702C8.12868 49.0813 8.3299 48.4861 8.68778 48.0472C9.04566 47.6082 9.53095 47.3615 10.0371 47.361H49.9629C50.4692 47.361 50.9547 47.6077 51.3126 48.0467C51.6706 48.4857 51.8717 49.0811 51.8717 49.702C51.8717 50.3229 51.6706 50.9183 51.3126 51.3573C50.9547 51.7963 50.4692 52.043 49.9629 52.043H10.0371C9.53095 52.0425 9.04566 51.7958 8.68778 51.3568C8.3299 50.9179 8.12868 50.3227 8.12833 49.702ZM54.6633 57.1845H5.33666C4.73077 57.1837 4.1388 56.9616 3.6363 56.5464C3.1338 56.1312 2.74355 55.5419 2.51533 54.8535H57.4847C57.2562 55.5416 56.8658 56.1307 56.3634 56.5458C55.861 56.961 55.2691 57.1833 54.6633 57.1845Z" fill="white"/>
</svg>
