<svg width="70" height="70" viewBox="0 0 70 70" fill="none" xmlns="http://www.w3.org/2000/svg">
<path d="M14 43.7499H18.6667C21.245 43.7499 23.3333 41.7899 23.3333 39.3748V34.9999C23.3333 32.5828 21.245 30.625 18.6667 30.625H14C11.4217 30.625 9.33333 32.5828 9.33333 34.9999V39.3748C9.33333 41.7899 11.4217 43.7499 14 43.7499ZM14 34.9999H18.6667V39.3748H14V34.9999ZM51.3333 61.2498H56C58.5783 61.2498 60.6668 59.292 60.6668 56.8749V52.4999C60.6668 50.0828 58.5783 48.125 56 48.125H51.3333C48.7574 48.125 46.6667 50.0828 46.6667 52.4999V56.8749C46.6667 59.292 48.755 61.2498 51.3333 61.2498ZM51.3333 52.4999H56V56.8749H51.3333V52.4999ZM51.3333 43.7499H56C58.5783 43.7499 60.6668 41.7899 60.6668 39.3748V34.9999C60.6668 32.5828 58.5783 30.625 56 30.625H51.3333C48.7574 30.625 46.6667 32.5828 46.6667 34.9999V39.3748C46.6667 41.7899 48.755 43.7499 51.3333 43.7499ZM51.3333 34.9999H56V39.3748H51.3333V34.9999ZM60.6668 4.37499H51.3333V2.1875C51.3333 0.979977 50.288 0 49.0001 0C47.7122 0 46.6668 0.979977 46.6668 2.1875V4.37499H23.3334V2.1875C23.3333 0.979977 22.288 0 21 0C19.712 0 18.6667 0.979977 18.6667 2.1875V4.37499H9.33333C4.17907 4.37499 0 8.29286 0 13.125V61.2498C0 66.082 4.17907 70 9.33333 70H60.6667C65.8209 70 70 66.0821 70 61.2498V13.125C70 8.29276 65.821 4.37499 60.6668 4.37499ZM65.3335 61.2498C65.3335 63.6671 63.2451 65.6249 60.6668 65.6249H9.33333C6.755 65.6249 4.66667 63.6648 4.66667 61.2498V21.875H65.3333V61.2498H65.3335ZM65.3335 17.5H4.66667V13.125C4.66667 10.7078 6.755 8.74999 9.33333 8.74999H18.6667V10.9375C18.6667 12.145 19.712 13.125 21 13.125C22.288 13.125 23.3333 12.145 23.3333 10.9375V8.74999H46.6667V10.9375C46.6667 12.145 47.7121 13.125 49 13.125C50.2879 13.125 51.3333 12.145 51.3333 10.9375V8.74999H60.6668C63.2451 8.74999 65.3335 10.7078 65.3335 13.125V17.5ZM32.6667 61.2498H37.3333C39.9117 61.2498 42 59.292 42 56.8749V52.4999C42 50.0828 39.9117 48.125 37.3333 48.125H32.6667C30.0907 48.125 28 50.0828 28 52.4999V56.8749C28 59.292 30.0883 61.2498 32.6667 61.2498ZM32.6667 52.4999H37.3333V56.8749H32.6667V52.4999ZM32.6667 43.7499H37.3333C39.9117 43.7499 42 41.7899 42 39.3748V34.9999C42 32.5828 39.9117 30.625 37.3333 30.625H32.6667C30.0907 30.625 28 32.5828 28 34.9999V39.3748C28 41.7899 30.0883 43.7499 32.6667 43.7499ZM32.6667 34.9999H37.3333V39.3748H32.6667V34.9999ZM14 61.2498H18.6667C21.245 61.2498 23.3333 59.292 23.3333 56.8749V52.4999C23.3333 50.0828 21.245 48.125 18.6667 48.125H14C11.4217 48.125 9.33333 50.0828 9.33333 52.4999V56.8749C9.33333 59.292 11.4217 61.2498 14 61.2498ZM14 52.4999H18.6667V56.8749H14V52.4999Z" fill="black"/>
</svg>
