<svg width="60" height="60" viewBox="0 0 60 60" fill="none" xmlns="http://www.w3.org/2000/svg">
<path d="M51.9271 9.05732V0H8.04949V9.05732H0V19.9904C0 23.3392 2.72127 26.0638 6.06597 26.0638H10.0874C13.334 33.0529 20.144 38.0547 28.1677 38.7183V51.9324H21.5387V56.3545H18.189V60H41.7864V56.3545H38.4378V51.9324H31.8086V38.7183C39.8321 38.0546 46.6422 33.0527 49.8888 26.0638H53.9335C57.2787 26.0638 60 23.3392 60 19.9904V9.05732H51.9271ZM34.797 56.3545H25.1799V55.5781H34.797V56.3545ZM6.06597 22.4183C4.72865 22.4183 3.64101 21.3291 3.64101 19.9904V12.703H8.04949V16.8338C8.04949 18.7632 8.30141 20.6343 8.77021 22.4185H6.06597V22.4183ZM48.2861 16.8338C48.2861 26.9358 40.0775 35.1544 29.9883 35.1544C19.8988 35.1544 11.6906 26.9357 11.6906 16.8338V3.64565H48.2862V16.8338H48.2861ZM56.3593 19.9904C56.3593 21.3291 55.2713 22.4183 53.9337 22.4183H51.2065C51.6753 20.6343 51.9272 18.763 51.9272 16.8337V12.703H56.3593V19.9904Z" fill="white"/>
<path d="M25.4748 24.7878L29.9879 22.4123L34.501 24.7878L33.639 19.7562L37.2902 16.1929L32.2444 15.4587L29.9879 10.8809L27.7313 15.4587L22.6855 16.1929L26.3367 19.7562L25.4748 24.7878Z" fill="white"/>
</svg>
