<svg width="60" height="60" viewBox="0 0 60 60" fill="none" xmlns="http://www.w3.org/2000/svg">
<path d="M54.0003 17.3418V46.2398C54.0003 50.9186 50.1004 54.4964 45.0005 54.4964H11.7012C11.7012 57.5238 14.4011 60.0008 17.7011 60.0008H48.0005C54.6003 60.0008 60.0002 55.0469 60.0002 48.992V22.8462C60.0002 19.8188 57.3003 17.3418 54.0003 17.3418Z" fill="white"/>
<path d="M8.99982 0V5.50439H5.99988C2.69995 5.50439 0 7.98137 0 11.0088V44.0351C0 47.0625 2.69995 49.5395 5.99988 49.5395H42.5992C45.8991 49.5395 48.5991 47.0625 48.5991 44.0351V11.0088C48.5991 7.98137 45.8991 5.50439 42.5992 5.50439H39.5992V0H33.5993V5.50439H14.9997V0H8.99982ZM5.99988 19.2654H42.5992V44.0351H5.99988V19.2654Z" fill="white"/>
<path d="M35.0996 41.8352L27.8998 37.9821L20.9999 41.8352L22.7999 34.4042L16.5 29.4503L24.8998 28.8998L28.1998 21.7441L31.4997 28.6246L39.8995 29.4503L33.5997 34.4042L35.0996 41.8352Z" fill="white"/>
</svg>
