<svg width="1172" height="545" viewBox="0 0 1172 545" fill="none" xmlns="http://www.w3.org/2000/svg">
<path d="M245.061 408.93H243.604C242.413 406.842 241.799 404.591 241.799 402.316C241.799 400.041 242.413 397.79 243.604 395.702H245.061C245.31 395.702 245.549 395.627 245.725 395.494C245.901 395.36 246 395.179 246 394.99C246 394.801 245.901 394.62 245.725 394.486C245.549 394.353 245.31 394.278 245.061 394.278H237.081C237.859 393.755 238.482 393.113 238.908 392.394C239.335 391.675 239.555 390.896 239.556 390.108V383.596C239.553 382.113 238.775 380.691 237.392 379.642C236.009 378.593 234.134 378.002 232.177 378H184.939C184.69 378 184.451 378.075 184.275 378.209C184.099 378.342 184 378.523 184 378.712C184 378.901 184.099 379.082 184.275 379.216C184.451 379.349 184.69 379.424 184.939 379.424H186.217C187.672 381.745 188.427 384.283 188.427 386.852C188.427 389.422 187.672 391.959 186.217 394.28H184.939C184.699 394.29 184.474 394.369 184.308 394.501C184.143 394.634 184.051 394.809 184.051 394.991C184.051 395.173 184.143 395.349 184.308 395.481C184.474 395.613 184.699 395.692 184.939 395.702H192.916C192.136 396.225 191.512 396.867 191.084 397.586C190.655 398.305 190.433 399.085 190.43 399.874C190.565 402.649 189.544 407.007 192.91 408.932C191.828 408.795 190.719 408.835 189.659 409.052C188.599 409.268 187.613 409.655 186.768 410.186C185.923 410.717 185.238 411.379 184.76 412.129C184.283 412.878 184.023 413.696 184 414.528V419.404C184.002 420.887 184.781 422.31 186.164 423.359C187.548 424.408 189.424 424.998 191.381 425H238.63C238.879 425 239.118 424.925 239.294 424.791C239.471 424.658 239.57 424.477 239.57 424.288C239.57 424.099 239.471 423.918 239.294 423.784C239.118 423.651 238.879 423.575 238.63 423.575H237.176C235.984 421.488 235.369 419.237 235.369 416.962C235.369 414.687 235.984 412.436 237.176 410.348H245.061C245.293 410.331 245.51 410.249 245.667 410.118C245.824 409.987 245.911 409.816 245.911 409.639C245.911 409.462 245.824 409.291 245.667 409.16C245.51 409.029 245.293 408.947 245.061 408.93ZM233.944 379.666C235.03 379.944 235.974 380.472 236.644 381.177C237.313 381.882 237.676 382.728 237.68 383.596V390.108C237.676 390.977 237.315 391.823 236.645 392.528C235.976 393.234 235.033 393.762 233.947 394.04C231.542 389.423 231.541 384.284 233.944 379.666ZM188.289 394.28C189.033 392.964 189.574 391.587 189.899 390.176H225.196C225.445 390.176 225.684 390.101 225.861 389.967C226.037 389.834 226.136 389.653 226.136 389.464C226.136 389.275 226.037 389.094 225.861 388.96C225.684 388.827 225.445 388.752 225.196 388.752H190.187C190.355 387.489 190.355 386.216 190.187 384.953H220.186C220.314 384.958 220.441 384.944 220.561 384.91C220.681 384.877 220.791 384.825 220.883 384.759C220.976 384.692 221.05 384.612 221.1 384.523C221.151 384.434 221.177 384.339 221.177 384.242C221.177 384.145 221.151 384.049 221.1 383.96C221.05 383.871 220.976 383.791 220.883 383.725C220.791 383.658 220.681 383.606 220.561 383.573C220.441 383.54 220.314 383.525 220.186 383.531H189.899C189.574 382.119 189.033 380.741 188.289 379.424H232.063C229.684 384.211 229.684 389.491 232.063 394.278L188.289 394.28ZM192.32 404.758V399.883C192.321 399.035 192.664 398.207 193.301 397.511C193.938 396.814 194.841 396.282 195.888 395.984C197.048 397.98 197.647 400.137 197.647 402.317C197.647 404.498 197.048 406.655 195.888 408.65C194.842 408.353 193.941 407.821 193.304 407.126C192.667 406.431 192.324 405.605 192.32 404.758ZM189.443 423.302C188.398 423.005 187.497 422.474 186.86 421.779C186.224 421.084 185.881 420.258 185.879 419.412V414.537C185.881 413.69 186.224 412.864 186.861 412.169C187.497 411.474 188.398 410.942 189.443 410.645C190.603 412.639 191.202 414.794 191.202 416.973C191.202 419.153 190.603 421.308 189.443 423.302ZM197.904 416.021H233.547C233.478 416.97 233.506 417.923 233.631 418.87H201.661C201.534 418.864 201.406 418.879 201.286 418.912C201.166 418.945 201.057 418.997 200.964 419.064C200.871 419.13 200.797 419.21 200.747 419.299C200.697 419.388 200.671 419.484 200.671 419.581C200.671 419.678 200.697 419.773 200.747 419.862C200.797 419.951 200.871 420.031 200.964 420.098C201.057 420.164 201.166 420.216 201.286 420.249C201.406 420.283 201.534 420.297 201.661 420.292H233.894C234.17 421.417 234.588 422.519 235.141 423.584C235.08 423.584 191.375 423.584 191.319 423.584C192.475 421.491 193.07 419.245 193.07 416.976C193.07 414.706 192.475 412.46 191.319 410.367C191.347 410.354 235.099 410.367 235.141 410.367C234.439 411.73 233.962 413.154 233.721 414.607H197.904C197.68 414.631 197.475 414.716 197.327 414.846C197.178 414.976 197.097 415.142 197.097 415.314C197.097 415.485 197.178 415.651 197.327 415.781C197.475 415.911 197.68 415.996 197.904 416.021ZM206.671 401.366H239.989C239.901 402.636 239.988 403.909 240.249 405.165H202.914C202.665 405.165 202.426 405.24 202.249 405.374C202.073 405.507 201.974 405.688 201.974 405.877C201.974 406.066 202.073 406.247 202.249 406.381C202.426 406.515 202.665 406.59 202.914 406.59H240.629C240.876 407.383 241.195 408.162 241.583 408.921C241.555 408.921 197.792 408.932 197.764 408.921C198.918 406.828 199.513 404.581 199.513 402.312C199.513 400.043 198.918 397.796 197.764 395.702C197.764 395.702 241.569 395.702 241.583 395.702C240.882 397.066 240.405 398.49 240.162 399.942H206.671C206.422 399.942 206.183 400.017 206.007 400.151C205.831 400.284 205.732 400.465 205.732 400.654C205.732 400.843 205.831 401.024 206.007 401.158C206.183 401.291 206.422 401.366 206.671 401.366Z" fill="white" fill-opacity="0.49"/>
<path d="M253.061 112.93H251.604C250.413 110.842 249.799 108.591 249.799 106.316C249.799 104.041 250.413 101.79 251.604 99.7024H253.061C253.31 99.7024 253.549 99.6273 253.725 99.4938C253.901 99.3602 254 99.179 254 98.9901C254 98.8012 253.901 98.6201 253.725 98.4865C253.549 98.3529 253.31 98.2779 253.061 98.2779H245.081C245.859 97.755 246.482 97.113 246.908 96.3942C247.335 95.6755 247.555 94.8964 247.556 94.1082V87.5962C247.553 86.1129 246.775 84.6908 245.392 83.6417C244.009 82.5926 242.134 82.0022 240.177 82H192.939C192.69 82 192.451 82.075 192.275 82.2086C192.099 82.3422 192 82.5233 192 82.7122C192 82.9011 192.099 83.0823 192.275 83.2159C192.451 83.3495 192.69 83.4245 192.939 83.4245H194.217C195.672 85.7452 196.427 88.2826 196.427 90.8522C196.427 93.4219 195.672 95.9593 194.217 98.28H192.939C192.699 98.2899 192.474 98.3692 192.308 98.5015C192.143 98.6338 192.051 98.809 192.051 98.9912C192.051 99.1734 192.143 99.3486 192.308 99.4809C192.474 99.6132 192.699 99.6924 192.939 99.7024H200.916C200.136 100.225 199.512 100.867 199.084 101.586C198.655 102.305 198.433 103.085 198.43 103.874C198.565 106.649 197.544 111.007 200.91 112.932C199.828 112.795 198.719 112.835 197.659 113.052C196.599 113.268 195.613 113.655 194.768 114.186C193.923 114.717 193.238 115.379 192.76 116.129C192.283 116.878 192.023 117.696 192 118.528V123.404C192.002 124.887 192.781 126.31 194.164 127.359C195.548 128.408 197.424 128.998 199.381 129H246.63C246.879 129 247.118 128.925 247.294 128.791C247.471 128.658 247.57 128.477 247.57 128.288C247.57 128.099 247.471 127.918 247.294 127.784C247.118 127.651 246.879 127.575 246.63 127.575H245.176C243.984 125.488 243.369 123.237 243.369 120.962C243.369 118.687 243.984 116.436 245.176 114.348H253.061C253.293 114.331 253.51 114.249 253.667 114.118C253.824 113.987 253.911 113.816 253.911 113.639C253.911 113.462 253.824 113.291 253.667 113.16C253.51 113.029 253.293 112.947 253.061 112.93ZM241.944 83.6662C243.03 83.9439 243.974 84.4722 244.644 85.1769C245.313 85.8816 245.676 86.7276 245.68 87.5962V94.1082C245.676 94.977 245.315 95.8232 244.645 96.5284C243.976 97.2335 243.033 97.7622 241.947 98.0405C239.542 93.4227 239.541 88.2845 241.944 83.6662ZM196.289 98.28C197.033 96.9638 197.574 95.5867 197.899 94.1761H233.196C233.445 94.1761 233.684 94.101 233.861 93.9675C234.037 93.8339 234.136 93.6527 234.136 93.4638C234.136 93.2749 234.037 93.0938 233.861 92.9602C233.684 92.8266 233.445 92.7516 233.196 92.7516H198.187C198.355 91.4885 198.355 90.2159 198.187 88.9529H228.186C228.314 88.9582 228.441 88.9437 228.561 88.9104C228.681 88.877 228.791 88.8255 228.883 88.7589C228.976 88.6924 229.05 88.6122 229.1 88.5232C229.151 88.4343 229.177 88.3385 229.177 88.2417C229.177 88.1449 229.151 88.0491 229.1 87.9602C229.05 87.8713 228.976 87.7911 228.883 87.7245C228.791 87.658 228.681 87.6064 228.561 87.5731C228.441 87.5397 228.314 87.5253 228.186 87.5305H197.899C197.574 86.1193 197.033 84.7414 196.289 83.4245H240.063C237.684 88.2113 237.684 93.4911 240.063 98.2779L196.289 98.28ZM200.32 108.758V103.883C200.321 103.035 200.664 102.207 201.301 101.511C201.938 100.814 202.841 100.282 203.888 99.9843C205.048 101.98 205.647 104.137 205.647 106.317C205.647 108.498 205.048 110.655 203.888 112.65C202.842 112.353 201.941 111.821 201.304 111.126C200.667 110.431 200.324 109.605 200.32 108.758ZM197.443 127.302C196.398 127.005 195.497 126.474 194.86 125.779C194.224 125.084 193.881 124.258 193.879 123.412V118.537C193.881 117.69 194.224 116.864 194.861 116.169C195.497 115.474 196.398 114.942 197.443 114.645C198.603 116.639 199.202 118.794 199.202 120.973C199.202 123.153 198.603 125.308 197.443 127.302ZM205.904 120.021H241.547C241.478 120.97 241.506 121.923 241.631 122.87H209.661C209.534 122.864 209.406 122.879 209.286 122.912C209.166 122.945 209.057 122.997 208.964 123.064C208.871 123.13 208.797 123.21 208.747 123.299C208.697 123.388 208.671 123.484 208.671 123.581C208.671 123.678 208.697 123.773 208.747 123.862C208.797 123.951 208.871 124.031 208.964 124.098C209.057 124.164 209.166 124.216 209.286 124.249C209.406 124.283 209.534 124.297 209.661 124.292H241.894C242.17 125.417 242.588 126.519 243.141 127.584C243.08 127.584 199.375 127.584 199.319 127.584C200.475 125.491 201.07 123.245 201.07 120.976C201.07 118.706 200.475 116.46 199.319 114.367C199.347 114.354 243.099 114.367 243.141 114.367C242.439 115.73 241.962 117.154 241.721 118.607H205.904C205.68 118.631 205.475 118.716 205.327 118.846C205.178 118.976 205.097 119.142 205.097 119.314C205.097 119.485 205.178 119.651 205.327 119.781C205.475 119.911 205.68 119.996 205.904 120.021ZM214.671 105.366H247.989C247.901 106.636 247.988 107.909 248.249 109.165H210.914C210.665 109.165 210.426 109.24 210.249 109.374C210.073 109.507 209.974 109.688 209.974 109.877C209.974 110.066 210.073 110.247 210.249 110.381C210.426 110.515 210.665 110.59 210.914 110.59H248.629C248.876 111.383 249.195 112.162 249.583 112.921C249.555 112.921 205.792 112.932 205.764 112.921C206.918 110.828 207.513 108.581 207.513 106.312C207.513 104.043 206.918 101.796 205.764 99.7024C205.764 99.7024 249.569 99.7024 249.583 99.7024C248.882 101.066 248.405 102.49 248.162 103.942H214.671C214.422 103.942 214.183 104.017 214.007 104.151C213.831 104.284 213.732 104.465 213.732 104.654C213.732 104.843 213.831 105.024 214.007 105.158C214.183 105.291 214.422 105.366 214.671 105.366Z" fill="white" fill-opacity="0.49"/>
<path d="M832.76 497.669C843.97 491.474 855.475 491.769 865.8 496.784V500.029C855.77 495.014 844.855 494.13 833.94 500.324C823.32 506.224 812.995 506.224 803.85 502.094V498.849C812.7 502.979 822.435 503.274 832.76 497.669Z" fill="white"/>
<path d="M800.015 487.344C801.49 488.524 803.26 489.41 805.03 490.294C805.325 490.59 805.915 490.59 805.915 490.59C800.9 484.394 797.95 476.43 797.95 467.875C797.95 447.52 814.47 431 834.825 431C855.179 431 871.699 447.52 871.699 467.875C871.699 475.249 869.634 482.035 865.799 487.64L867.274 488.23H867.569C868.454 488.819 869.634 489.409 870.519 490C871.995 490.884 873.469 491.769 874.649 492.654V496.489C872.879 495.014 871.109 493.834 869.045 492.654C857.835 486.164 846.035 484.394 834.235 491.18C821.255 498.554 809.16 496.784 798.245 489.705C797.065 488.82 795.885 488.23 795 487.344V483.51C796.475 484.984 797.95 486.164 800.015 487.344ZM801.785 459.615C801.195 462.27 800.9 464.925 800.9 467.875C800.9 469.645 800.9 471.415 801.195 472.89C801.195 473.775 801.49 475.25 801.785 475.25C810.635 467.875 821.845 463.45 833.94 463.155C836.595 458.14 838.66 452.83 839.545 447.52C825.975 445.75 812.7 449.585 802.375 457.55C802.67 457.255 802.08 458.435 801.785 459.615ZM839.84 434.245C840.135 434.245 838.66 433.95 837.48 433.95C836.595 433.95 835.71 433.95 834.825 433.95C822.435 433.95 811.815 440.44 805.915 450.175C805.325 451.06 804.44 452.83 804.44 452.83C814.765 446.34 827.155 443.095 839.84 444.865C840.135 441.325 840.135 437.785 839.84 434.245ZM857.245 442.505C856.95 442.21 856.065 441.325 855.18 440.735C851.935 438.375 848.395 436.605 844.56 435.425C843.675 435.13 842.495 434.835 842.79 434.835C843.675 444.865 841.905 455.485 836.595 464.925C839.545 469.94 843.085 474.069 847.215 477.315C855.18 466.99 858.424 454.6 857.245 442.505ZM863.44 486.164C863.44 485.869 864.619 484.099 865.209 482.919C867.569 478.494 868.749 473.185 868.749 467.875C868.749 460.205 866.389 453.42 861.965 447.815C861.375 446.635 860.195 445.455 860.49 445.75C860.785 457.55 857.245 469.35 849.575 479.379C854 482.33 858.424 484.69 863.44 486.164ZM832.76 488.819C838.66 485.574 844.56 484.099 850.46 484.099C851.05 484.099 851.64 484.099 851.64 484.099C844.56 479.969 838.66 474.069 834.235 466.4C828.63 466.4 823.025 467.58 818.01 469.35C821.255 477.315 826.27 483.804 832.465 488.819H832.76ZM811.52 492.359C811.815 492.359 812.405 492.654 812.995 492.654C818.305 493.539 823.91 492.949 829.515 490.294C823.32 484.984 818.305 478.494 815.06 470.53C810.635 472.594 806.21 475.249 802.67 478.494C802.67 478.789 802.965 479.379 803.26 479.969C805.03 484.69 807.685 489.114 811.52 492.359C811.225 492.359 811.225 492.359 811.52 492.359Z" fill="white"/>
<path d="M75.5 473C57.56 473 43 487.56 43 505.5C43 523.44 57.56 538 75.5 538C93.4401 538 108 523.44 108 505.5C108 487.56 93.4401 473 75.5 473ZM71.0801 475.86C70.8201 475.86 72.1201 475.6 73.1601 475.6C73.94 475.6 74.7201 475.6 75.5 475.6C86.42 475.6 95.78 481.32 100.98 489.9C101.5 490.68 102.28 492.24 102.28 492.24C93.1799 486.52 82.2599 483.66 71.0799 485.22C70.8201 482.1 70.8201 478.98 71.0801 475.86ZM55.74 483.14C56 482.88 56.78 482.1 57.56 481.58C60.4201 479.5 63.54 477.94 66.9201 476.9C67.7 476.64 68.74 476.38 68.4801 476.38C67.7001 485.22 69.2601 494.58 73.9401 502.9C71.3401 507.32 68.2201 510.96 64.5801 513.82C57.56 504.72 54.7 493.8 55.74 483.14ZM50.28 521.62C50.28 521.36 49.24 519.8 48.72 518.76C46.64 514.86 45.6 510.18 45.6 505.5C45.6 498.74 47.68 492.76 51.58 487.82C52.1 486.78 53.14 485.74 52.8799 486C52.62 496.4 55.74 506.8 62.5 515.64C58.6 518.24 54.7 520.32 50.28 521.62ZM60.68 531.5C57.8201 529.68 54.96 527.6 52.88 525C52.36 524.48 51.84 523.96 52.1001 523.96C61.9801 520.58 70.5602 513.82 76.2801 504.2C81.2202 504.2 86.1601 505.24 90.5802 506.8C85.3802 519.54 74.4601 528.64 62.2402 532.02C62.5001 532.54 61.4601 532.02 60.68 531.5ZM103.84 514.86C103.84 515.12 103.58 515.64 103.32 516.16C98.9002 527.34 88.2401 535.4 75.5 535.4C72.38 535.4 69.26 534.88 66.3999 534.1C66.1398 534.1 65.8799 533.84 65.8799 533.84C77.8401 529.42 87.72 520.32 92.92 507.84C97.0801 509.66 100.72 512 103.84 514.86ZM104.62 512.26C96.8202 505.76 86.9402 501.86 76.2801 501.6C73.9401 497.18 72.1201 492.5 71.3401 487.82C83.3002 486.26 95.0001 489.64 104.1 496.66C103.84 496.14 104.36 497.18 104.62 498.22C105.14 500.56 105.4 502.9 105.4 505.5C105.4 507.06 105.4 508.62 105.14 509.92C104.88 510.96 104.62 512 104.62 512.26Z" fill="white"/>
<path d="M44.5 142C26.56 142 12 156.56 12 174.5C12 192.44 26.56 207 44.5 207C62.4401 207 77 192.44 77 174.5C77.0001 156.56 62.4401 142 44.5 142ZM40.0801 144.86C39.8201 144.86 41.1201 144.6 42.1601 144.6C42.94 144.6 43.7201 144.6 44.5 144.6C55.42 144.6 64.78 150.32 69.9801 158.9C70.5001 159.68 71.28 161.24 71.28 161.24C62.1799 155.52 51.2599 152.66 40.0799 154.22C39.8201 151.1 39.8201 147.98 40.0801 144.86ZM24.74 152.14C25 151.88 25.78 151.1 26.56 150.58C29.4201 148.5 32.54 146.94 35.9201 145.9C36.7 145.64 37.74 145.38 37.4801 145.38C36.7001 154.22 38.2601 163.58 42.9401 171.9C40.3401 176.32 37.2201 179.96 33.5801 182.82C26.56 173.72 23.7 162.8 24.74 152.14ZM19.28 190.62C19.28 190.36 18.24 188.8 17.72 187.76C15.64 183.86 14.6 179.18 14.6 174.5C14.6 167.74 16.68 161.76 20.58 156.82C21.1 155.78 22.14 154.74 21.8799 155C21.62 165.4 24.74 175.8 31.5 184.64C27.6 187.24 23.7 189.32 19.28 190.62ZM29.68 200.5C26.8201 198.68 23.96 196.6 21.88 194C21.36 193.48 20.84 192.96 21.1001 192.96C30.9801 189.58 39.5602 182.82 45.2801 173.2C50.2202 173.2 55.1601 174.24 59.5802 175.8C54.3802 188.54 43.4601 197.64 31.2402 201.02C31.5001 201.54 30.4601 201.02 29.68 200.5ZM72.8401 183.86C72.8401 184.12 72.5801 184.64 72.3201 185.16C67.9002 196.34 57.2401 204.4 44.5 204.4C41.38 204.4 38.26 203.88 35.3999 203.1C35.1398 203.1 34.8799 202.84 34.8799 202.84C46.8401 198.42 56.72 189.32 61.92 176.84C66.0801 178.66 69.7201 181 72.8401 183.86ZM73.6202 181.26C65.8202 174.76 55.9402 170.86 45.2801 170.6C42.9401 166.18 41.1201 161.5 40.3401 156.82C52.3002 155.26 64.0001 158.64 73.1002 165.66C72.8403 165.14 73.3601 166.18 73.6202 167.22C74.1402 169.56 74.4001 171.9 74.4001 174.5C74.4001 176.06 74.4001 177.62 74.1402 178.92C73.8801 179.96 73.6202 181 73.6202 181.26Z" fill="white"/>
<path d="M497.5 73C479.56 73 465 87.56 465 105.5C465 123.44 479.56 138 497.5 138C515.44 138 530 123.44 530 105.5C530 87.56 515.44 73 497.5 73ZM493.08 75.8601C492.82 75.8601 494.12 75.6 495.16 75.6C495.94 75.6 496.72 75.6 497.5 75.6C508.42 75.6 517.78 81.32 522.98 89.9001C523.5 90.68 524.28 92.24 524.28 92.24C515.18 86.52 504.26 83.6601 493.08 85.2201C492.82 82.1001 492.82 78.9799 493.08 75.8601ZM477.74 83.14C478 82.8799 478.78 82.1 479.56 81.58C482.42 79.4999 485.54 77.9399 488.92 76.8999C489.7 76.6399 490.74 76.3799 490.48 76.3799C489.7 85.22 491.26 94.58 495.94 102.9C493.34 107.32 490.22 110.96 486.58 113.82C479.56 104.72 476.7 93.8 477.74 83.14ZM472.28 121.62C472.28 121.36 471.24 119.8 470.72 118.76C468.64 114.86 467.6 110.18 467.6 105.5C467.6 98.7401 469.68 92.7602 473.58 87.8201C474.1 86.7801 475.14 85.7401 474.88 86C474.62 96.4 477.74 106.8 484.5 115.64C480.6 118.24 476.7 120.32 472.28 121.62ZM482.68 131.5C479.82 129.68 476.96 127.6 474.88 125C474.36 124.48 473.84 123.96 474.1 123.96C483.98 120.58 492.56 113.82 498.28 104.2C503.22 104.2 508.16 105.24 512.58 106.8C507.38 119.54 496.46 128.64 484.24 132.02C484.5 132.54 483.46 132.02 482.68 131.5ZM525.84 114.86C525.84 115.12 525.58 115.64 525.32 116.16C520.9 127.34 510.24 135.4 497.5 135.4C494.38 135.4 491.26 134.88 488.4 134.1C488.14 134.1 487.88 133.84 487.88 133.84C499.84 129.42 509.72 120.32 514.92 107.84C519.08 109.66 522.72 112 525.84 114.86ZM526.62 112.26C518.82 105.76 508.94 101.86 498.28 101.6C495.94 97.18 494.12 92.5 493.34 87.8201C505.3 86.2601 517 89.64 526.1 96.6601C525.84 96.1401 526.36 97.1801 526.62 98.2201C527.14 100.56 527.4 102.9 527.4 105.5C527.4 107.06 527.4 108.62 527.14 109.92C526.88 110.96 526.62 112 526.62 112.26Z" fill="white"/>
<path d="M36.9348 286.02C36.808 286.705 37.2618 287.363 37.9471 287.487C38.5807 287.604 39.1746 287.806 39.6917 288.064C40.3125 288.378 41.0696 288.128 41.3821 287.507C41.6939 286.883 41.4394 286.125 40.8146 285.816C40.0736 285.446 39.262 285.176 38.4017 285.018C37.6304 284.915 37.1239 285.26 36.9348 286.02ZM50.8442 286.309C44.2501 286.421 38.9963 291.745 38.9963 298.262C38.9963 303.622 42.5519 308.174 47.445 309.688C48.5664 310.032 49.7363 310.213 50.9476 310.213C56.0739 310.213 59.5003 307.46 61.1051 304.547H64.1617V308.328H61.6457C60.9509 308.326 60.3854 308.887 60.3827 309.582C60.38 310.28 60.947 310.847 61.6457 310.845H64.1617V314.614H59.1296V312.098C59.1269 311.403 58.5615 310.842 57.8667 310.845C57.1748 310.846 56.6138 311.406 56.6111 312.098V314.614H51.579V313.36C51.5818 312.666 51.0207 312.1 50.3259 312.098C49.6273 312.095 49.0602 312.662 49.063 313.36V314.614H44.0284V312.098C44.0258 311.407 43.4663 310.847 42.7753 310.845C42.0805 310.842 41.5151 311.403 41.5124 312.098V314.614H36.4876V310.845H38.9963C39.695 310.847 40.262 310.28 40.2593 309.582C40.2565 308.886 39.6911 308.325 38.9963 308.328H36.4876V304.547C37.1786 304.544 37.7381 303.985 37.7407 303.294C37.7381 302.603 37.1786 302.043 36.4876 302.041H8.80372V299.183C9.55503 298.744 10.0666 297.927 10.0667 297.006V294.49C10.0666 293.115 8.9253 291.974 7.5506 291.974H2.5185C1.14382 291.974 1.2548e-05 293.115 0 294.49V297.006C1.2548e-05 297.923 0.508846 298.738 1.25557 299.178V343.897C0.508846 344.337 1.2548e-05 345.152 0 346.069V348.585C1.2548e-05 349.96 1.14382 351.101 2.5185 351.101H7.5506C8.9253 351.101 10.0666 349.96 10.0667 348.585V346.069C10.0666 345.148 9.55503 344.331 8.80372 343.892C8.80388 339.165 8.80372 334.443 8.80372 329.715H69.1963V343.892C68.4444 344.331 67.9334 345.148 67.9334 346.069V348.585C67.9334 349.96 69.0747 351.101 70.4494 351.101H75.4815C76.8562 351.101 78 349.96 78 348.585V346.069C78 345.149 77.4874 344.333 76.7371 343.894V299.181C77.4874 298.742 78 297.926 78 297.006V294.49C78 293.115 76.8562 291.974 75.4815 291.974H70.4494C69.0747 291.974 67.9334 293.115 67.9334 294.49V297.006C67.9334 297.927 68.4444 298.744 69.1963 299.183V302.041H62.2845C62.6826 300.852 62.8988 299.582 62.8988 298.262C62.8988 297.26 62.7738 296.286 62.5314 295.317C61.9969 293.242 60.9433 291.414 59.3839 289.812C57.0951 287.594 54.1686 286.308 50.8442 286.309ZM50.9476 288.827C53.3136 288.827 55.4692 289.69 57.1222 291.119C56.8927 291.88 56.4942 292.59 55.9797 293.244C55.7278 292.83 55.4161 292.449 55.0706 292.114C54.0471 291.122 52.6961 290.367 51.2449 289.792C50.4727 289.486 49.6707 289.237 48.8738 289.053C49.5407 288.904 50.2347 288.827 50.9476 288.827ZM31.9568 289.93C31.2621 290 30.7571 290.621 30.8315 291.316C30.9025 292.005 31.5178 292.507 32.2074 292.438C33.5319 292.306 34.8894 292.58 35.9225 293.097C36.5447 293.408 37.3007 293.154 37.6105 292.532C37.9161 291.912 37.6637 291.161 37.0454 290.851C35.2001 290.017 33.7249 289.892 31.9568 289.93ZM50.3161 292.131C51.5439 292.617 52.648 293.277 53.3162 293.925C53.7848 294.379 54.0087 294.748 54.0705 295.082C53.1505 295.78 52.1268 296.364 51.122 296.817C48.8582 295.163 45.7905 293.619 42.623 293.805C43.0786 292.953 43.6609 292.179 44.3454 291.51C46.3571 290.917 48.5216 291.433 50.3161 292.131ZM58.9724 293.286C59.447 294.052 59.8153 294.892 60.056 295.785C60.0314 296.135 59.7818 296.833 59.2206 297.593C58.6027 298.43 57.6731 299.332 56.648 300.09C55.6229 300.848 54.4968 301.461 53.53 301.78C52.8705 301.998 52.3107 302.059 51.9157 302.024C51.7421 301.059 51.7377 300.101 51.9697 299.203C54.5701 298.078 57.5225 296.177 58.9724 293.286ZM2.51851 294.49H7.55061V297.006H2.5185L2.51851 294.49ZM70.4494 294.49H75.4815V297.006H70.4494V294.49ZM31.5096 294.915C31.2257 294.918 30.9419 294.934 30.657 294.964C28.8333 295.153 27.0095 295.889 25.5291 297.37C25.0346 297.861 25.0346 298.662 25.5291 299.153C26.0209 299.648 26.8211 299.648 27.3129 299.153C29.3842 297.082 32.5936 297.098 34.6596 298.131C35.2824 298.441 36.0387 298.187 36.3476 297.564C36.6545 296.946 36.4069 296.196 35.7923 295.883C34.5409 295.257 33.0424 294.899 31.5096 294.915ZM43.424 302.244C43.5419 303.043 43.7164 303.837 43.9424 304.596C42.4298 302.924 41.5124 300.704 41.5124 298.261C41.5124 297.655 41.5711 297.061 41.6795 296.487C42.4915 296.272 43.3595 296.311 44.0407 296.406C43.8087 296.831 43.6347 297.294 43.4022 298.218C43.1698 299.143 43.1958 300.7 43.424 302.244ZM46.9818 305.532C46.4967 304.506 46.1059 303.18 45.9129 301.873C45.72 300.567 45.7325 299.275 45.9595 298.372C46.1217 297.727 46.3351 297.348 46.6009 297.131C47.6283 297.56 48.6142 298.125 49.488 298.741C48.7008 301.948 49.9357 305.168 51.5323 307.68C50.4346 307.774 49.1364 307.592 48.3024 307.322C48.0164 307.138 47.4351 306.49 46.9818 305.532ZM3.77162 299.524H6.28767V314.613H3.77162V299.524ZM71.7123 299.524H74.2284V314.613H71.7123V299.524ZM59.2463 302.769C58.1576 304.775 56.3629 306.333 54.1957 307.124C53.6412 306.336 53.1238 305.46 52.7141 304.542C53.2497 304.485 53.7894 304.35 54.3186 304.175C55.6292 303.743 56.9419 303.003 58.1443 302.114C58.8644 301.582 59.5436 300.995 60.1468 300.374C59.9545 301.221 59.6496 302.023 59.2463 302.769ZM8.80372 304.547H11.3222V327.198H8.80372C8.80388 319.645 8.80372 312.099 8.80372 304.547ZM13.8383 304.547H18.8704V308.328H13.8383V304.547ZM21.3889 304.547H26.421V308.328H21.3889V304.547ZM28.937 304.547H33.9716V308.328H28.937V304.547ZM66.6778 304.547H69.1963V327.198H66.6778C66.6779 319.647 66.6778 312.096 66.6778 304.547ZM13.8383 310.844H18.8704V314.613H13.8383V310.844ZM21.3889 310.844H26.421V314.613H21.3889V310.844ZM28.937 310.844H33.9716V314.613H28.937V310.844ZM3.77162 317.132H6.28767V338.518H3.77162V317.132ZM13.8383 317.132H18.8704V320.911H13.8383V317.132ZM21.3889 317.132H26.421V320.911H21.3889V317.132ZM28.937 317.132H33.9716V320.911H28.937V317.132ZM36.4876 317.132H41.5124V320.911H36.4876V317.132ZM44.0284 317.132H49.063V320.911H44.0284V317.132ZM51.579 317.132H56.6111V320.911H51.579V317.132ZM59.1296 317.132H64.1617V320.911H59.1296V317.132ZM71.7123 317.132H74.2284V338.518H71.7123C71.7125 331.387 71.7123 324.263 71.7123 317.132ZM13.8383 323.427H18.8704V327.198H13.8383V323.427ZM21.3889 323.427H26.421V327.198H21.3889V323.427ZM28.937 323.427H33.9716V327.198H28.937V323.427ZM36.4876 323.427H41.5124V327.198H36.4876V323.427ZM44.0284 323.427H49.063V327.198H44.0284V323.427ZM51.579 323.427H56.6111V327.198H51.579V323.427ZM59.1296 323.427H64.1617V327.198H59.1296V323.427ZM3.77162 341.034H6.28767V343.55H3.77162V341.034ZM71.7123 341.034H74.2284V343.55H71.7123V341.034ZM2.5185 346.069H7.5506V348.585H2.5185V346.069ZM70.4494 346.069H75.4815V348.585H70.4494V346.069Z" fill="white"/>
<path d="M48.9348 1.02017C48.808 1.7051 49.2618 2.36271 49.9471 2.48709C50.5807 2.6035 51.1746 2.80571 51.6917 3.0645C52.3125 3.37782 53.0696 3.1276 53.3821 2.5067C53.6939 1.88331 53.4394 1.12526 52.8146 0.816364C52.0736 0.44597 51.262 0.176022 50.4017 0.0177359C49.6304 -0.0850673 49.1239 0.260337 48.9348 1.02017ZM62.8442 1.30899C56.2501 1.42086 50.9963 6.74518 50.9963 13.2618C50.9963 18.6224 54.5519 23.1741 59.445 24.6885C60.5664 25.0317 61.7363 25.213 62.9476 25.213C68.0739 25.213 71.5003 22.4605 73.1051 19.547H76.1617V23.3285H73.6457C72.9509 23.3257 72.3854 23.8868 72.3827 24.5815C72.38 25.2802 72.947 25.8473 73.6457 25.8445H76.1617V29.6137H71.1296V27.0976C71.1269 26.4028 70.5615 25.8419 69.8667 25.8445C69.1748 25.8459 68.6138 26.4057 68.6111 27.0976V29.6137H63.579V28.3605C63.5818 27.6657 63.0207 27.1003 62.3259 27.0976C61.6273 27.0949 61.0602 27.6619 61.063 28.3605V29.6137H56.0284V27.0976C56.0258 26.4066 55.4663 25.8473 54.7753 25.8445C54.0805 25.8418 53.5151 26.4028 53.5124 27.0976V29.6137H48.4876V25.8445H50.9963C51.695 25.8474 52.262 25.2802 52.2593 24.5815C52.2565 23.8865 51.6911 23.3255 50.9963 23.3282H48.4876V19.5469C49.1786 19.5442 49.7381 18.9846 49.7407 18.2937C49.7381 17.6027 49.1786 17.0433 48.4876 17.0406H20.8037V14.183C21.555 13.7441 22.0666 12.9267 22.0667 12.006V9.48997C22.0666 8.11535 20.9253 6.97394 19.5506 6.9739H14.5185C13.1438 6.9739 12 8.11535 12 9.48997V12.006C12 12.9233 12.5088 13.7381 13.2556 14.178V58.897C12.5088 59.3367 12 60.1517 12 61.069V63.585C12 64.9597 13.1438 66.1011 14.5185 66.1011H19.5506C20.9253 66.1011 22.0666 64.9597 22.0667 63.585V61.069C22.0666 60.1482 21.555 59.3308 20.8037 58.892C20.8039 54.1652 20.8037 49.4427 20.8037 44.7146H81.1963V58.892C80.4444 59.3308 79.9334 60.1478 79.9334 61.069V63.585C79.9334 64.9597 81.0747 66.1011 82.4494 66.1011H87.4815C88.8562 66.1011 90 64.9597 90 63.585V61.069C90 60.149 89.4874 59.3335 88.7371 58.8944V14.1806C89.4874 13.7417 90 12.9259 90 12.006V9.48997C90 8.11535 88.8562 6.9739 87.4815 6.9739H82.4494C81.0747 6.9739 79.9334 8.11535 79.9334 9.48997V12.006C79.9334 12.9271 80.4444 13.7444 81.1963 14.183V17.0406H74.2845C74.6826 15.8516 74.8988 14.582 74.8988 13.2615C74.8988 12.2597 74.7738 11.2857 74.5314 10.3167C73.9969 8.24151 72.9433 6.41365 71.3839 4.8117C69.0951 2.59425 66.1686 1.30812 62.8442 1.30899ZM62.9476 3.82656C65.3136 3.82656 67.4692 4.68968 69.1222 6.1191C68.8927 6.87969 68.4942 7.59019 67.9797 8.24439C67.7278 7.82978 67.4161 7.44917 67.0706 7.11415C66.0471 6.12188 64.6961 5.36673 63.2449 4.7922C62.4727 4.48644 61.6707 4.23688 60.8738 4.05263C61.5407 3.90409 62.2347 3.82656 62.9476 3.82656ZM43.9568 4.92981C43.2621 4.99973 42.7571 5.62145 42.8315 6.31564C42.9025 7.00506 43.5178 7.50709 44.2074 7.43849C45.5319 7.30583 46.8894 7.58025 47.9225 8.09698C48.5447 8.40766 49.3007 8.15445 49.6105 7.53192C49.9161 6.91155 49.6637 6.16101 49.0454 5.85127C47.2001 5.01725 45.7249 4.89152 43.9568 4.92981ZM62.3161 7.13134C63.5439 7.61746 64.648 8.27706 65.3162 8.92491C65.7848 9.37947 66.0087 9.74814 66.0705 10.0822C65.1505 10.7801 64.1268 11.3639 63.122 11.817C60.8582 10.1631 57.7905 8.61873 54.623 8.80461C55.0786 7.95259 55.6609 7.17892 56.3454 6.50965C58.3571 5.9172 60.5216 6.43258 62.3161 7.13134ZM70.9724 8.28614C71.447 9.05237 71.8153 9.89204 72.056 10.785C72.0314 11.1354 71.7818 11.8333 71.2206 12.5935C70.6027 13.4303 69.6731 14.332 68.648 15.0898C67.6229 15.8476 66.4968 16.4609 65.53 16.7803C64.8705 16.998 64.3107 17.0585 63.9157 17.0238C63.7421 16.0591 63.7377 15.1013 63.9697 14.203C66.5701 13.0776 69.5225 11.1767 70.9724 8.28614ZM14.5185 9.48985H19.5506V12.0059H14.5185L14.5185 9.48985ZM82.4494 9.48985H87.4815V12.0059H82.4494V9.48985ZM43.5096 9.915C43.2257 9.91754 42.9419 9.9339 42.657 9.96414C40.8333 10.1527 39.0095 10.8892 37.5291 12.3696C37.0346 12.8614 37.0346 13.6616 37.5291 14.1535C38.0209 14.6479 38.8211 14.6479 39.3129 14.1535C41.3842 12.0822 44.5936 12.0983 46.6596 13.1313C47.2824 13.4412 48.0387 13.1872 48.3476 12.5637C48.6545 11.946 48.4069 11.1964 47.7923 10.8831C46.5409 10.2574 45.0424 9.89852 43.5096 9.915ZM55.424 17.2444C55.5419 18.0433 55.7164 18.8368 55.9424 19.5959C54.4298 17.9236 53.5124 15.7035 53.5124 13.2614C53.5124 12.6551 53.5711 12.0615 53.6795 11.4875C54.4915 11.2724 55.3595 11.3109 56.0407 11.4061C55.8087 11.8312 55.6347 12.2935 55.4022 13.2181C55.1698 14.1426 55.1958 15.7004 55.424 17.2444ZM58.9818 20.5319C58.4967 19.5062 58.1059 18.1798 57.9129 16.8734C57.72 15.5669 57.7325 14.2747 57.9595 13.372C58.1217 12.7272 58.3351 12.3481 58.6009 12.1312C59.6283 12.5596 60.6142 13.1254 61.488 13.7407C60.7008 16.9478 61.9357 20.1678 63.5323 22.6796C62.4346 22.774 61.1364 22.5922 60.3024 22.322C60.0164 22.1379 59.4351 21.4905 58.9818 20.5319ZM15.7716 14.5243H18.2877V29.6132H15.7716V14.5243ZM83.7123 14.5243H86.2284V29.6132H83.7123V14.5243ZM71.2463 17.769C70.1576 19.7751 68.3629 21.3334 66.1957 22.1242C65.6412 21.3364 65.1238 20.4599 64.7141 19.5418C65.2497 19.4847 65.7894 19.3505 66.3186 19.1755C67.6292 18.7428 68.9419 18.0029 70.1443 17.1141C70.8644 16.5817 71.5436 15.9953 72.1468 15.3744C71.9545 16.2206 71.6496 17.0234 71.2463 17.769ZM20.8037 19.5466H23.3222V42.1984H20.8037C20.8039 34.6455 20.8037 27.0987 20.8037 19.5466ZM25.8383 19.5466H30.8704V23.3281H25.8383V19.5466ZM33.3889 19.5466H38.421V23.3281H33.3889V19.5466ZM40.937 19.5466H45.9716V23.3281H40.937V19.5466ZM78.6778 19.5466H81.1963V42.1984H78.6778C78.6779 34.6469 78.6778 27.0957 78.6778 19.5466ZM25.8383 25.8441H30.8704V29.6132H25.8383V25.8441ZM33.3889 25.8441H38.421V29.6132H33.3889V25.8441ZM40.937 25.8441H45.9716V29.6132H40.937V25.8441ZM15.7716 32.1317H18.2877V53.5182H15.7716V32.1317ZM25.8383 32.1317H30.8704V35.9108H25.8383V32.1317ZM33.3889 32.1317H38.421V35.9108H33.3889V32.1317ZM40.937 32.1317H45.9716V35.9108H40.937V32.1317ZM48.4876 32.1317H53.5124V35.9108H48.4876V32.1317ZM56.0284 32.1317H61.063V35.9108H56.0284V32.1317ZM63.579 32.1317H68.6111V35.9108H63.579V32.1317ZM71.1296 32.1317H76.1617V35.9108H71.1296V32.1317ZM83.7123 32.1317H86.2284V53.5182H83.7123C83.7125 46.3868 83.7123 39.2625 83.7123 32.1317ZM25.8383 38.4267H30.8704V42.1984H25.8383V38.4267ZM33.3889 38.4267H38.421V42.1984H33.3889V38.4267ZM40.937 38.4267H45.9716V42.1984H40.937V38.4267ZM48.4876 38.4267H53.5124V42.1984H48.4876V38.4267ZM56.0284 38.4267H61.063V42.1984H56.0284V38.4267ZM63.579 38.4267H68.6111V42.1984H63.579V38.4267ZM71.1296 38.4267H76.1617V42.1984H71.1296V38.4267ZM15.7716 56.0343H18.2877V58.5502H15.7716V56.0343ZM83.7123 56.0343H86.2284V58.5502H83.7123V56.0343ZM14.5185 61.0688H19.5506V63.5848H14.5185V61.0688ZM82.4494 61.0688H87.4815V63.5848H82.4494V61.0688Z" fill="white"/>
<path d="M501.935 297.02C501.808 297.705 502.262 298.363 502.947 298.487C503.581 298.604 504.175 298.806 504.692 299.064C505.312 299.378 506.07 299.128 506.382 298.507C506.694 297.883 506.439 297.125 505.815 296.816C505.074 296.446 504.262 296.176 503.402 296.018C502.63 295.915 502.124 296.26 501.935 297.02ZM515.844 297.309C509.25 297.421 503.996 302.745 503.996 309.262C503.996 314.622 507.552 319.174 512.445 320.688C513.566 321.032 514.736 321.213 515.948 321.213C521.074 321.213 524.5 318.46 526.105 315.547H529.162V319.328H526.646C525.951 319.326 525.385 319.887 525.383 320.582C525.38 321.28 525.947 321.847 526.646 321.845H529.162V325.614H524.13V323.098C524.127 322.403 523.561 321.842 522.867 321.845C522.175 321.846 521.614 322.406 521.611 323.098V325.614H516.579V324.36C516.582 323.666 516.021 323.1 515.326 323.098C514.627 323.095 514.06 323.662 514.063 324.36V325.614H509.028V323.098C509.026 322.407 508.466 321.847 507.775 321.845C507.081 321.842 506.515 322.403 506.512 323.098V325.614H501.488V321.845H503.996C504.695 321.847 505.262 321.28 505.259 320.582C505.256 319.886 504.691 319.325 503.996 319.328H501.488V315.547C502.179 315.544 502.738 314.985 502.741 314.294C502.738 313.603 502.179 313.043 501.488 313.041H473.804V310.183C474.555 309.744 475.067 308.927 475.067 308.006V305.49C475.067 304.115 473.925 302.974 472.551 302.974H467.519C466.144 302.974 465 304.115 465 305.49V308.006C465 308.923 465.509 309.738 466.256 310.178V354.897C465.509 355.337 465 356.152 465 357.069V359.585C465 360.96 466.144 362.101 467.519 362.101H472.551C473.925 362.101 475.067 360.96 475.067 359.585V357.069C475.067 356.148 474.555 355.331 473.804 354.892C473.804 350.165 473.804 345.443 473.804 340.715H534.196V354.892C533.444 355.331 532.933 356.148 532.933 357.069V359.585C532.933 360.96 534.075 362.101 535.449 362.101H540.481C541.856 362.101 543 360.96 543 359.585V357.069C543 356.149 542.487 355.333 541.737 354.894V310.181C542.487 309.742 543 308.926 543 308.006V305.49C543 304.115 541.856 302.974 540.481 302.974H535.449C534.075 302.974 532.933 304.115 532.933 305.49V308.006C532.933 308.927 533.444 309.744 534.196 310.183V313.041H527.285C527.683 311.852 527.899 310.582 527.899 309.262C527.899 308.26 527.774 307.286 527.531 306.317C526.997 304.242 525.943 302.414 524.384 300.812C522.095 298.594 519.169 297.308 515.844 297.309ZM515.948 299.827C518.314 299.827 520.469 300.69 522.122 302.119C521.893 302.88 521.494 303.59 520.98 304.244C520.728 303.83 520.416 303.449 520.071 303.114C519.047 302.122 517.696 301.367 516.245 300.792C515.473 300.486 514.671 300.237 513.874 300.053C514.541 299.904 515.235 299.827 515.948 299.827ZM496.957 300.93C496.262 301 495.757 301.621 495.831 302.316C495.902 303.005 496.518 303.507 497.207 303.438C498.532 303.306 499.889 303.58 500.923 304.097C501.545 304.408 502.301 304.154 502.611 303.532C502.916 302.912 502.664 302.161 502.045 301.851C500.2 301.017 498.725 300.892 496.957 300.93ZM515.316 303.131C516.544 303.617 517.648 304.277 518.316 304.925C518.785 305.379 519.009 305.748 519.071 306.082C518.15 306.78 517.127 307.364 516.122 307.817C513.858 306.163 510.791 304.619 507.623 304.805C508.079 303.953 508.661 303.179 509.345 302.51C511.357 301.917 513.522 302.433 515.316 303.131ZM523.972 304.286C524.447 305.052 524.815 305.892 525.056 306.785C525.031 307.135 524.782 307.833 524.221 308.593C523.603 309.43 522.673 310.332 521.648 311.09C520.623 311.848 519.497 312.461 518.53 312.78C517.87 312.998 517.311 313.059 516.916 313.024C516.742 312.059 516.738 311.101 516.97 310.203C519.57 309.078 522.523 307.177 523.972 304.286ZM467.519 305.49H472.551V308.006H467.519L467.519 305.49ZM535.449 305.49H540.481V308.006H535.449V305.49ZM496.51 305.915C496.226 305.918 495.942 305.934 495.657 305.964C493.833 306.153 492.009 306.889 490.529 308.37C490.035 308.861 490.035 309.662 490.529 310.153C491.021 310.648 491.821 310.648 492.313 310.153C494.384 308.082 497.594 308.098 499.66 309.131C500.282 309.441 501.039 309.187 501.348 308.564C501.655 307.946 501.407 307.196 500.792 306.883C499.541 306.257 498.042 305.899 496.51 305.915ZM508.424 313.244C508.542 314.043 508.716 314.837 508.942 315.596C507.43 313.924 506.512 311.704 506.512 309.261C506.512 308.655 506.571 308.061 506.679 307.487C507.491 307.272 508.36 307.311 509.041 307.406C508.809 307.831 508.635 308.294 508.402 309.218C508.17 310.143 508.196 311.7 508.424 313.244ZM511.982 316.532C511.497 315.506 511.106 314.18 510.913 312.873C510.72 311.567 510.733 310.275 510.96 309.372C511.122 308.727 511.335 308.348 511.601 308.131C512.628 308.56 513.614 309.125 514.488 309.741C513.701 312.948 514.936 316.168 516.532 318.68C515.435 318.774 514.136 318.592 513.302 318.322C513.016 318.138 512.435 317.49 511.982 316.532ZM468.772 310.524H471.288V325.613H468.772V310.524ZM536.712 310.524H539.228V325.613H536.712V310.524ZM524.246 313.769C523.158 315.775 521.363 317.333 519.196 318.124C518.641 317.336 518.124 316.46 517.714 315.542C518.25 315.485 518.789 315.35 519.319 315.175C520.629 314.743 521.942 314.003 523.144 313.114C523.864 312.582 524.544 311.995 525.147 311.374C524.954 312.221 524.65 313.023 524.246 313.769ZM473.804 315.547H476.322V338.198H473.804C473.804 330.645 473.804 323.099 473.804 315.547ZM478.838 315.547H483.87V319.328H478.838V315.547ZM486.389 315.547H491.421V319.328H486.389V315.547ZM493.937 315.547H498.972V319.328H493.937V315.547ZM531.678 315.547H534.196V338.198H531.678C531.678 330.647 531.678 323.096 531.678 315.547ZM478.838 321.844H483.87V325.613H478.838V321.844ZM486.389 321.844H491.421V325.613H486.389V321.844ZM493.937 321.844H498.972V325.613H493.937V321.844ZM468.772 328.132H471.288V349.518H468.772V328.132ZM478.838 328.132H483.87V331.911H478.838V328.132ZM486.389 328.132H491.421V331.911H486.389V328.132ZM493.937 328.132H498.972V331.911H493.937V328.132ZM501.488 328.132H506.512V331.911H501.488V328.132ZM509.028 328.132H514.063V331.911H509.028V328.132ZM516.579 328.132H521.611V331.911H516.579V328.132ZM524.13 328.132H529.162V331.911H524.13V328.132ZM536.712 328.132H539.228V349.518H536.712C536.713 342.387 536.712 335.263 536.712 328.132ZM478.838 334.427H483.87V338.198H478.838V334.427ZM486.389 334.427H491.421V338.198H486.389V334.427ZM493.937 334.427H498.972V338.198H493.937V334.427ZM501.488 334.427H506.512V338.198H501.488V334.427ZM509.028 334.427H514.063V338.198H509.028V334.427ZM516.579 334.427H521.611V338.198H516.579V334.427ZM524.13 334.427H529.162V338.198H524.13V334.427ZM468.772 352.034H471.288V354.55H468.772V352.034ZM536.712 352.034H539.228V354.55H536.712V352.034ZM467.519 357.069H472.551V359.585H467.519V357.069ZM535.449 357.069H540.481V359.585H535.449V357.069Z" fill="white"/>
<path d="M1130.93 479.02C1130.81 479.705 1131.26 480.363 1131.95 480.487C1132.58 480.604 1133.17 480.806 1133.69 481.064C1134.31 481.378 1135.07 481.128 1135.38 480.507C1135.69 479.883 1135.44 479.125 1134.81 478.816C1134.07 478.446 1133.26 478.176 1132.4 478.018C1131.63 477.915 1131.12 478.26 1130.93 479.02ZM1144.84 479.309C1138.25 479.421 1133 484.745 1133 491.262C1133 496.622 1136.55 501.174 1141.44 502.688C1142.57 503.032 1143.74 503.213 1144.95 503.213C1150.07 503.213 1153.5 500.46 1155.11 497.547H1158.16V501.328H1155.65C1154.95 501.326 1154.39 501.887 1154.38 502.582C1154.38 503.28 1154.95 503.847 1155.65 503.845H1158.16V507.614H1153.13V505.098C1153.13 504.403 1152.56 503.842 1151.87 503.845C1151.17 503.846 1150.61 504.406 1150.61 505.098V507.614H1145.58V506.36C1145.58 505.666 1145.02 505.1 1144.33 505.098C1143.63 505.095 1143.06 505.662 1143.06 506.36V507.614H1138.03V505.098C1138.03 504.407 1137.47 503.847 1136.78 503.845C1136.08 503.842 1135.52 504.403 1135.51 505.098V507.614H1130.49V503.845H1133C1133.69 503.847 1134.26 503.28 1134.26 502.582C1134.26 501.886 1133.69 501.325 1133 501.328H1130.49V497.547C1131.18 497.544 1131.74 496.985 1131.74 496.294C1131.74 495.603 1131.18 495.043 1130.49 495.041H1102.8V492.183C1103.56 491.744 1104.07 490.927 1104.07 490.006V487.49C1104.07 486.115 1102.93 484.974 1101.55 484.974H1096.52C1095.14 484.974 1094 486.115 1094 487.49V490.006C1094 490.923 1094.51 491.738 1095.26 492.178V536.897C1094.51 537.337 1094 538.152 1094 539.069V541.585C1094 542.96 1095.14 544.101 1096.52 544.101H1101.55C1102.93 544.101 1104.07 542.96 1104.07 541.585V539.069C1104.07 538.148 1103.56 537.331 1102.8 536.892C1102.8 532.165 1102.8 527.443 1102.8 522.715H1163.2V536.892C1162.44 537.331 1161.93 538.148 1161.93 539.069V541.585C1161.93 542.96 1163.07 544.101 1164.45 544.101H1169.48C1170.86 544.101 1172 542.96 1172 541.585V539.069C1172 538.149 1171.49 537.333 1170.74 536.894V492.181C1171.49 491.742 1172 490.926 1172 490.006V487.49C1172 486.115 1170.86 484.974 1169.48 484.974H1164.45C1163.07 484.974 1161.93 486.115 1161.93 487.49V490.006C1161.93 490.927 1162.44 491.744 1163.2 492.183V495.041H1156.28C1156.68 493.852 1156.9 492.582 1156.9 491.262C1156.9 490.26 1156.77 489.286 1156.53 488.317C1156 486.242 1154.94 484.414 1153.38 482.812C1151.1 480.594 1148.17 479.308 1144.84 479.309ZM1144.95 481.827C1147.31 481.827 1149.47 482.69 1151.12 484.119C1150.89 484.88 1150.49 485.59 1149.98 486.244C1149.73 485.83 1149.42 485.449 1149.07 485.114C1148.05 484.122 1146.7 483.367 1145.24 482.792C1144.47 482.486 1143.67 482.237 1142.87 482.053C1143.54 481.904 1144.23 481.827 1144.95 481.827ZM1125.96 482.93C1125.26 483 1124.76 483.621 1124.83 484.316C1124.9 485.005 1125.52 485.507 1126.21 485.438C1127.53 485.306 1128.89 485.58 1129.92 486.097C1130.54 486.408 1131.3 486.154 1131.61 485.532C1131.92 484.912 1131.66 484.161 1131.05 483.851C1129.2 483.017 1127.72 482.892 1125.96 482.93ZM1144.32 485.131C1145.54 485.617 1146.65 486.277 1147.32 486.925C1147.78 487.379 1148.01 487.748 1148.07 488.082C1147.15 488.78 1146.13 489.364 1145.12 489.817C1142.86 488.163 1139.79 486.619 1136.62 486.805C1137.08 485.953 1137.66 485.179 1138.35 484.51C1140.36 483.917 1142.52 484.433 1144.32 485.131ZM1152.97 486.286C1153.45 487.052 1153.82 487.892 1154.06 488.785C1154.03 489.135 1153.78 489.833 1153.22 490.593C1152.6 491.43 1151.67 492.332 1150.65 493.09C1149.62 493.848 1148.5 494.461 1147.53 494.78C1146.87 494.998 1146.31 495.059 1145.92 495.024C1145.74 494.059 1145.74 493.101 1145.97 492.203C1148.57 491.078 1151.52 489.177 1152.97 486.286ZM1096.52 487.49H1101.55V490.006H1096.52L1096.52 487.49ZM1164.45 487.49H1169.48V490.006H1164.45V487.49ZM1125.51 487.915C1125.23 487.918 1124.94 487.934 1124.66 487.964C1122.83 488.153 1121.01 488.889 1119.53 490.37C1119.03 490.861 1119.03 491.662 1119.53 492.153C1120.02 492.648 1120.82 492.648 1121.31 492.153C1123.38 490.082 1126.59 490.098 1128.66 491.131C1129.28 491.441 1130.04 491.187 1130.35 490.564C1130.65 489.946 1130.41 489.196 1129.79 488.883C1128.54 488.257 1127.04 487.899 1125.51 487.915ZM1137.42 495.244C1137.54 496.043 1137.72 496.837 1137.94 497.596C1136.43 495.924 1135.51 493.704 1135.51 491.261C1135.51 490.655 1135.57 490.061 1135.68 489.487C1136.49 489.272 1137.36 489.311 1138.04 489.406C1137.81 489.831 1137.63 490.294 1137.4 491.218C1137.17 492.143 1137.2 493.7 1137.42 495.244ZM1140.98 498.532C1140.5 497.506 1140.11 496.18 1139.91 494.873C1139.72 493.567 1139.73 492.275 1139.96 491.372C1140.12 490.727 1140.34 490.348 1140.6 490.131C1141.63 490.56 1142.61 491.125 1143.49 491.741C1142.7 494.948 1143.94 498.168 1145.53 500.68C1144.43 500.774 1143.14 500.592 1142.3 500.322C1142.02 500.138 1141.44 499.49 1140.98 498.532ZM1097.77 492.524H1100.29V507.613H1097.77V492.524ZM1165.71 492.524H1168.23V507.613H1165.71V492.524ZM1153.25 495.769C1152.16 497.775 1150.36 499.333 1148.2 500.124C1147.64 499.336 1147.12 498.46 1146.71 497.542C1147.25 497.485 1147.79 497.35 1148.32 497.175C1149.63 496.743 1150.94 496.003 1152.14 495.114C1152.86 494.582 1153.54 493.995 1154.15 493.374C1153.95 494.221 1153.65 495.023 1153.25 495.769ZM1102.8 497.547H1105.32V520.198H1102.8C1102.8 512.645 1102.8 505.099 1102.8 497.547ZM1107.84 497.547H1112.87V501.328H1107.84V497.547ZM1115.39 497.547H1120.42V501.328H1115.39V497.547ZM1122.94 497.547H1127.97V501.328H1122.94V497.547ZM1160.68 497.547H1163.2V520.198H1160.68C1160.68 512.647 1160.68 505.096 1160.68 497.547ZM1107.84 503.844H1112.87V507.613H1107.84V503.844ZM1115.39 503.844H1120.42V507.613H1115.39V503.844ZM1122.94 503.844H1127.97V507.613H1122.94V503.844ZM1097.77 510.132H1100.29V531.518H1097.77V510.132ZM1107.84 510.132H1112.87V513.911H1107.84V510.132ZM1115.39 510.132H1120.42V513.911H1115.39V510.132ZM1122.94 510.132H1127.97V513.911H1122.94V510.132ZM1130.49 510.132H1135.51V513.911H1130.49V510.132ZM1138.03 510.132H1143.06V513.911H1138.03V510.132ZM1145.58 510.132H1150.61V513.911H1145.58V510.132ZM1153.13 510.132H1158.16V513.911H1153.13V510.132ZM1165.71 510.132H1168.23V531.518H1165.71C1165.71 524.387 1165.71 517.263 1165.71 510.132ZM1107.84 516.427H1112.87V520.198H1107.84V516.427ZM1115.39 516.427H1120.42V520.198H1115.39V516.427ZM1122.94 516.427H1127.97V520.198H1122.94V516.427ZM1130.49 516.427H1135.51V520.198H1130.49V516.427ZM1138.03 516.427H1143.06V520.198H1138.03V516.427ZM1145.58 516.427H1150.61V520.198H1145.58V516.427ZM1153.13 516.427H1158.16V520.198H1153.13V516.427ZM1097.77 534.034H1100.29V536.55H1097.77V534.034ZM1165.71 534.034H1168.23V536.55H1165.71V534.034ZM1096.52 539.069H1101.55V541.585H1096.52V539.069ZM1164.45 539.069H1169.48V541.585H1164.45V539.069Z" fill="white"/>
<path d="M203.76 262.669C214.97 256.474 226.475 256.769 236.8 261.784V265.029C226.77 260.014 215.855 259.13 204.94 265.324C194.32 271.224 183.995 271.224 174.85 267.094V263.849C183.7 267.979 193.435 268.274 203.76 262.669Z" fill="white"/>
<path d="M171.015 252.344C172.49 253.524 174.26 254.41 176.03 255.294C176.325 255.59 176.915 255.59 176.915 255.59C171.9 249.394 168.95 241.43 168.95 232.875C168.95 212.52 185.47 196 205.825 196C226.179 196 242.699 212.52 242.699 232.875C242.699 240.249 240.634 247.035 236.799 252.64L238.274 253.23H238.569C239.454 253.819 240.634 254.409 241.519 255C242.995 255.884 244.469 256.769 245.649 257.654V261.489C243.879 260.014 242.109 258.834 240.045 257.654C228.835 251.164 217.035 249.394 205.235 256.18C192.255 263.554 180.16 261.784 169.245 254.705C168.065 253.82 166.885 253.23 166 252.344V248.51C167.475 249.984 168.95 251.164 171.015 252.344ZM172.785 224.615C172.195 227.27 171.9 229.925 171.9 232.875C171.9 234.645 171.9 236.415 172.195 237.89C172.195 238.775 172.49 240.25 172.785 240.25C181.635 232.875 192.845 228.45 204.94 228.155C207.595 223.14 209.66 217.83 210.545 212.52C196.975 210.75 183.7 214.585 173.375 222.55C173.67 222.255 173.08 223.435 172.785 224.615ZM210.84 199.245C211.135 199.245 209.66 198.95 208.48 198.95C207.595 198.95 206.71 198.95 205.825 198.95C193.435 198.95 182.815 205.44 176.915 215.175C176.325 216.06 175.44 217.83 175.44 217.83C185.765 211.34 198.155 208.095 210.84 209.865C211.135 206.325 211.135 202.785 210.84 199.245ZM228.245 207.505C227.95 207.21 227.065 206.325 226.18 205.735C222.935 203.375 219.395 201.605 215.56 200.425C214.675 200.13 213.495 199.835 213.79 199.835C214.675 209.865 212.905 220.485 207.595 229.925C210.545 234.94 214.085 239.069 218.215 242.315C226.18 231.99 229.424 219.6 228.245 207.505ZM234.44 251.164C234.44 250.869 235.619 249.099 236.209 247.919C238.569 243.494 239.749 238.185 239.749 232.875C239.749 225.205 237.389 218.42 232.965 212.815C232.375 211.635 231.195 210.455 231.49 210.75C231.785 222.55 228.245 234.35 220.575 244.379C225 247.33 229.424 249.69 234.44 251.164ZM203.76 253.819C209.66 250.574 215.56 249.099 221.46 249.099C222.05 249.099 222.64 249.099 222.64 249.099C215.56 244.969 209.66 239.069 205.235 231.4C199.63 231.4 194.025 232.58 189.01 234.35C192.255 242.315 197.27 248.804 203.465 253.819H203.76ZM182.52 257.359C182.815 257.359 183.405 257.654 183.995 257.654C189.305 258.539 194.91 257.949 200.515 255.294C194.32 249.984 189.305 243.494 186.06 235.53C181.635 237.594 177.21 240.249 173.67 243.494C173.67 243.789 173.965 244.379 174.26 244.969C176.03 249.69 178.685 254.114 182.52 257.359C182.225 257.359 182.225 257.359 182.52 257.359Z" fill="white"/>
</svg>
