<svg width="70" height="70" viewBox="0 0 70 70" fill="none" xmlns="http://www.w3.org/2000/svg">
<path d="M65.1724 0H4.82759C2.17235 0 0 3.31569 0 7.36842V62.6316C0 66.6841 2.17235 70 4.82759 70H65.1724C67.8275 70 70 66.6841 70 62.6316V7.36842C70 3.31569 67.8275 0 65.1724 0ZM2.41379 22.1053H9.65517V47.8947H2.41379V22.1053ZM4.82759 66.3158C3.62075 66.3158 2.41379 64.8421 2.41379 62.6316V51.5789H12.069V18.4211H2.41379V7.36842C2.41379 5.52641 3.37931 3.68421 4.82759 3.68421H33.7931V18.4211C28.4828 19.1579 24.1379 26.5263 24.1379 34.9999C24.1379 43.4735 28.4828 50.4736 33.7931 51.5788V66.3156H4.82759V66.3158ZM36.2069 22.1053C40.3104 22.8421 43.4483 28.3685 43.4483 35.0001C43.4483 41.6317 40.3104 46.7896 36.2069 47.8949V22.1053ZM33.7931 47.8947C29.6896 47.1579 26.5517 41.6315 26.5517 34.9999C26.5517 28.3683 29.6896 23.2104 33.7931 22.1051V47.8947ZM67.5862 47.8947H60.3448V22.1053H67.5862V47.8947ZM67.5862 18.4211H57.931V51.5789H67.5862V62.6316C67.5862 64.4736 66.6207 66.3158 65.1724 66.3158H36.2069V51.5789C41.5172 50.8421 45.8621 43.4737 45.8621 35.0001C45.8621 26.5265 41.5172 19.5264 36.2069 18.4212V3.6844H65.1724C66.3792 3.6844 67.5862 5.15809 67.5862 7.36861V18.4211Z" fill="black"/>
</svg>
