<svg width="53" height="53" viewBox="0 0 53 53" fill="none" xmlns="http://www.w3.org/2000/svg">
<circle cx="26.5" cy="26.5" r="26.5" fill="#F2A007" fill-opacity="0.8"/>
<path d="M35.159 36.1546L33.6745 37.639C33.4093 37.9027 32.6329 38.0695 32.6097 38.0695C27.9104 38.1091 23.3861 36.264 20.0612 32.9385C16.7268 29.6049 14.8795 25.063 14.9307 20.3502C14.9307 20.3475 15.1009 19.593 15.3654 19.3306L16.8499 17.8449C17.3946 17.3009 18.4374 17.0549 19.168 17.2981L19.4811 17.4034C20.2117 17.6467 20.975 18.4531 21.1773 19.1952L21.925 21.9384C22.128 22.682 21.8553 23.7398 21.3113 24.2838L20.3189 25.2761C21.2922 28.8831 24.1208 31.711 27.726 32.6856L28.7183 31.6932C29.2624 31.1492 30.323 30.8772 31.0666 31.0795L33.81 31.8286C34.5508 32.0295 35.3573 32.7921 35.602 33.5233L35.7059 33.8363C35.949 34.5677 35.703 35.6106 35.159 36.1546ZM27.5264 26.8726H28.926C28.926 25.3268 27.6726 24.0734 26.1267 24.0734V25.473C26.8983 25.473 27.5264 26.1017 27.5264 26.8726ZM33.1251 26.8726C33.1251 23.0073 29.9922 19.8746 26.1267 19.8746V21.2742C29.2144 21.2742 31.7254 23.7864 31.7254 26.8726H33.1251ZM26.1267 15.6758V17.0754C31.5285 17.0754 35.9244 21.471 35.9244 26.8726H37.3241C37.3241 20.6892 32.3104 15.6758 26.1267 15.6758Z" fill="white"/>
</svg>
