<svg width="31" height="30" viewBox="0 0 31 30" fill="none" xmlns="http://www.w3.org/2000/svg">
<path d="M27.2393 27.4339L25.2568 29.4224C24.9026 29.7757 23.8657 29.9992 23.8347 29.9992C17.5587 30.0522 11.5164 27.5805 7.0759 23.1255C2.62271 18.6597 0.155579 12.5753 0.224044 6.26202C0.224044 6.25832 0.451345 5.24764 0.804593 4.89608L2.78709 2.90577C3.51456 2.17705 4.90734 1.84746 5.88308 2.17335L6.30111 2.31433C7.27685 2.64023 8.29635 3.72052 8.56653 4.71473L9.56505 8.38955C9.83611 9.38564 9.47193 10.8028 8.7454 11.5315L7.42009 12.8608C8.71987 17.6929 12.4976 21.4812 17.3124 22.7867L18.6377 21.4573C19.3643 20.7285 20.7808 20.3642 21.7739 20.6352L25.4377 21.6386C26.4271 21.9078 27.5042 22.9294 27.831 23.909L27.9697 24.3283C28.2944 25.3081 27.9658 26.7051 27.2393 27.4339ZM17.0458 14.9996H18.9151C18.9151 12.9287 17.2412 11.2497 15.1765 11.2497V13.1246C16.207 13.1246 17.0458 13.9668 17.0458 14.9996ZM24.523 14.9996C24.523 9.82146 20.339 5.62481 15.1765 5.62481V7.49981C19.3003 7.49981 22.6537 10.8652 22.6537 14.9996H24.523ZM15.1765 0V1.87494C22.3908 1.87494 28.2616 7.76342 28.2616 14.9996H30.1308C30.1308 6.71612 23.435 0 15.1765 0Z" fill="#0597F2"/>
</svg>
