<svg width="30" height="30" viewBox="0 0 30 30" fill="none" xmlns="http://www.w3.org/2000/svg">
<path d="M15 0C6.72001 0 0 6.72001 0 15C0 23.28 6.72001 30 15 30C23.28 30 30 23.28 30 15C30.0001 6.72001 23.28 0 15 0ZM12.96 1.32003C12.8401 1.32003 13.44 1.2 13.92 1.2C14.28 1.2 14.64 1.2 15 1.2C20.04 1.2 24.36 3.84001 26.76 7.80005C27 8.16002 27.36 8.88002 27.36 8.88002C23.16 6.24001 18.1199 4.92004 12.96 5.64004C12.8401 4.20004 12.8401 2.75997 12.96 1.32003ZM5.87998 4.67998C6.00001 4.55995 6.35998 4.19998 6.72001 3.95998C8.04005 2.99997 9.47999 2.27997 11.04 1.79997C11.4 1.67994 11.88 1.55997 11.76 1.55997C11.4001 5.63998 12.1201 9.95999 14.2801 13.8C13.0801 15.84 11.6401 17.52 9.96005 18.84C6.72001 14.64 5.39998 9.60002 5.87998 4.67998ZM3.36001 22.4401C3.36001 22.32 2.88001 21.6 2.64001 21.12C1.68 19.32 1.2 17.1601 1.2 15.0001C1.2 11.8801 2.16 9.12008 3.95998 6.84005C4.19998 6.36004 4.67998 5.88004 4.55995 6.00001C4.43998 10.8 5.87998 15.6 8.99999 19.68C7.20001 20.88 5.39998 21.84 3.36001 22.4401ZM8.16002 27C6.84005 26.16 5.52001 25.2 4.56001 24C4.32001 23.76 4.08001 23.52 4.20004 23.52C8.76005 21.9601 12.7201 18.8401 15.36 14.4C17.6401 14.4 19.92 14.88 21.9601 15.6C19.5601 21.4801 14.5201 25.6801 8.88008 27.2401C9.00005 27.4801 8.52005 27.2401 8.16002 27ZM28.0801 19.32C28.0801 19.44 27.96 19.68 27.8401 19.92C25.8001 25.0801 20.88 28.8001 15 28.8001C13.56 28.8001 12.12 28.5601 10.8 28.2001C10.6799 28.2001 10.56 28.0801 10.56 28.0801C16.08 26.0401 20.64 21.8401 23.04 16.0801C24.9601 16.92 26.6401 18 28.0801 19.32ZM28.4401 18.12C24.8401 15.12 20.2801 13.32 15.36 13.2C14.2801 11.16 13.44 8.99999 13.0801 6.84005C18.6001 6.12004 24 7.68002 28.2001 10.9201C28.0801 10.6801 28.3201 11.1601 28.4401 11.6401C28.6801 12.72 28.8001 13.8001 28.8001 15.0001C28.8001 15.7201 28.8001 16.4401 28.6801 17.0401C28.5601 17.52 28.4401 18 28.4401 18.12Z" fill="white"/>
</svg>
