<svg width="62" height="62" viewBox="0 0 62 62" fill="none" xmlns="http://www.w3.org/2000/svg">
<path d="M20.0396 29.6858C16.5638 30.9512 14.232 34.6748 14.4665 38.6587C15.5708 37.1184 17.2574 35.7888 19.3005 34.9146L20.0396 29.6858ZM9.28176 35.7222L6.20794 13.985C6.17984 13.7888 6.23506 13.6677 6.23118 13.6641C11.8266 9.78184 18.1583 7.72932 24.5414 7.72932C24.6974 7.72932 24.8543 7.74991 25.0112 7.75233C26.3626 6.12122 28.0851 4.98779 30.009 4.60393C31.8389 4.23823 33.695 4.05296 35.5482 3.95972C34.5805 2.27048 33.1768 1.02565 31.5018 0.690226C29.1855 0.228865 26.8577 0 24.5404 0C17.114 0 9.78647 2.35161 3.21646 6.90953C0.875007 8.53459 -0.379515 11.9252 0.10195 15.3279L3.17577 37.0652C4.55429 46.8155 16.3826 54.27 22.9817 54.27C23.3295 54.27 23.6356 54.2143 23.9514 54.1731C22.6417 52.1048 21.1479 49.2713 20.1249 45.9897C15.5127 44.4179 9.85041 39.7389 9.28176 35.7222ZM18.7318 19.0769C18.6611 18.578 18.5158 18.1239 18.3376 17.6964C17.5383 18.7754 16.3352 19.6036 14.916 19.9148C13.4968 20.2273 12.1386 19.9633 11.0914 19.2888C11.041 19.7659 11.0294 20.2551 11.1001 20.754C11.4721 23.3817 13.4813 25.1363 15.5892 24.6738C17.6963 24.2112 19.1038 21.7046 18.7318 19.0769ZM58.7835 14.6401C50.1637 8.66053 40.2389 6.47723 30.4982 8.42197C27.8526 8.94994 25.7436 11.6019 25.2631 15.0046L22.1893 36.7418C20.6984 47.2829 31.4195 60.5086 37.5254 61.8503C43.6314 63.1933 57.3333 55.3368 58.8242 44.7957L61.898 23.0584C62.3795 19.6545 61.125 16.2639 58.7835 14.6401ZM32.3136 26.3618C32.6856 23.7341 34.6948 21.9795 36.8028 22.4433C38.9108 22.907 40.3174 25.4124 39.9463 28.0401C39.8756 28.539 39.7303 28.9931 39.5521 29.4206C38.7528 28.3417 37.5497 27.5134 36.1305 27.2022C34.7113 26.8898 33.3531 27.1537 32.3059 27.8282C32.2545 27.3499 32.2429 26.8607 32.3136 26.3618ZM39.1403 50.4301C33.7464 49.2446 30.0807 43.253 30.5147 36.7588C32.5103 39.8515 35.96 42.3496 40.1527 43.2711C44.3454 44.1927 48.2727 43.3159 50.9958 41.261C49.6221 47.5505 44.5333 51.6156 39.1403 50.4301ZM51.7631 32.104C50.9638 31.0251 49.7597 30.1968 48.3405 29.8856C46.9213 29.5732 45.5631 29.8372 44.5159 30.5116C44.4655 30.0345 44.4539 29.5453 44.5246 29.0464C44.8966 26.4187 46.9058 24.6641 49.0138 25.1267C51.1208 25.5904 52.5284 28.0958 52.1573 30.7236C52.0866 31.2237 51.9413 31.6778 51.7631 32.104Z" fill="#00A3FF"/>
</svg>
