<svg width="51" height="50" viewBox="0 0 51 50" fill="none" xmlns="http://www.w3.org/2000/svg">
<path d="M21.3778 39H27.4663V24.3766H31.714L32.1669 19.4807H27.4663C27.4663 19.4807 27.4663 17.6524 27.4663 16.6916C27.4663 15.5375 27.708 15.081 28.8725 15.081C29.8087 15.081 32.1681 15.081 32.1681 15.081V10C32.1681 10 28.694 10 27.952 10C23.4215 10 21.3778 11.9134 21.3778 15.5771C21.3778 18.768 21.3778 19.4807 21.3778 19.4807H18.2109V24.4383H21.3778V39Z" fill="#25788A"/>
<path d="M25.1895 1.5C38.1214 1.50018 48.6123 12.0171 48.6123 25C48.6123 37.9829 38.1214 48.4998 25.1895 48.5C12.2573 48.5 1.76562 37.983 1.76562 25C1.76562 12.017 12.2573 1.5 25.1895 1.5Z" stroke="#25788A" stroke-width="3"/>
</svg>
