<svg width="51" height="50" viewBox="0 0 51 50" fill="none" xmlns="http://www.w3.org/2000/svg">
<path d="M25.2159 13.1311C28.9131 13.1311 29.3507 13.1447 30.8107 13.2123C32.1603 13.2738 32.8934 13.5 33.3812 13.6906C34.0273 13.9427 34.4882 14.2427 34.9736 14.7296C35.4578 15.2153 35.7581 15.6776 36.0094 16.3256C36.1994 16.815 36.425 17.5503 36.4863 18.9041C36.5525 20.3686 36.5672 20.8075 36.5672 24.516C36.5672 28.2245 36.5525 28.6635 36.4863 30.1279C36.425 31.4817 36.1994 32.217 36.0094 32.7064C35.7581 33.3544 35.459 33.8167 34.9736 34.3036C34.4894 34.7893 34.0285 35.0906 33.3812 35.3426C32.8934 35.5332 32.1603 35.7595 30.8107 35.821C29.3507 35.8874 28.9131 35.9021 25.2159 35.9021C21.5188 35.9021 21.0812 35.8874 19.6212 35.821C18.2716 35.7595 17.5385 35.5332 17.0506 35.3426C16.4046 35.0906 15.9437 34.7893 15.4583 34.3036C14.9741 33.8179 14.6737 33.3556 14.4224 32.7064C14.2337 32.217 14.0069 31.4817 13.9456 30.1279C13.8794 28.6635 13.8647 28.2245 13.8647 24.516C13.8647 20.8075 13.8782 20.3686 13.9456 18.9041C14.0069 17.5503 14.2337 16.815 14.4224 16.3256C14.6737 15.6776 14.9741 15.2153 15.4583 14.7296C15.9425 14.2439 16.4034 13.9427 17.0506 13.6906C17.5385 13.5 18.2716 13.2738 19.6212 13.2123C21.0812 13.1447 21.5188 13.1311 25.2159 13.1311ZM25.2159 10.6289C21.4563 10.6289 20.9843 10.6449 19.5072 10.7125C18.0338 10.7802 17.0273 11.015 16.146 11.3581C15.2352 11.7134 14.4629 12.188 13.6931 12.9602C12.9232 13.7324 12.4501 14.5071 12.097 15.4207C11.755 16.3035 11.5209 17.313 11.4535 18.7922C11.386 20.2739 11.3701 20.7461 11.3701 24.5185C11.3701 28.2909 11.386 28.7631 11.4535 30.2447C11.5209 31.7227 11.755 32.7322 12.097 33.6163C12.4501 34.5299 12.9232 35.3033 13.6931 36.0767C14.4629 36.8489 15.2352 37.3235 16.146 37.6789C17.0261 38.0219 18.0325 38.2568 19.5072 38.3244C20.9843 38.3921 21.4551 38.408 25.2159 38.408C28.9756 38.408 29.4475 38.3921 30.9247 38.3244C32.3981 38.2568 33.4045 38.0219 34.2859 37.6789C35.1967 37.3235 35.969 36.8489 36.7388 36.0767C37.5086 35.3045 37.9818 34.5299 38.3361 33.6163C38.6781 32.7334 38.9122 31.7239 38.9796 30.2447C39.0471 28.7631 39.063 28.2909 39.063 24.5185C39.063 20.7461 39.0471 20.2739 38.9796 18.7922C38.9122 17.3143 38.6781 16.3047 38.3361 15.4207C37.9818 14.5071 37.5086 13.7324 36.7388 12.9602C35.969 12.188 35.1967 11.7134 34.2859 11.3581C33.4058 11.015 32.3993 10.7802 30.9247 10.7125C29.4475 10.6449 28.9756 10.6289 25.2159 10.6289Z" fill="#25788A"/>
<path d="M25.2163 17.3848C21.2899 17.3848 18.1064 20.578 18.1064 24.5164C18.1064 28.4549 21.2899 31.6481 25.2163 31.6481C29.1427 31.6481 32.3261 28.4549 32.3261 24.5164C32.3261 20.578 29.1427 17.3848 25.2163 17.3848ZM25.2163 29.1447C22.6678 29.1447 20.601 27.0716 20.601 24.5152C20.601 21.9589 22.6678 19.8858 25.2163 19.8858C27.7648 19.8858 29.8316 21.9589 29.8316 24.5152C29.8316 27.0716 27.7648 29.1447 25.2163 29.1447Z" fill="#25788A"/>
<path d="M34.2683 17.1016C34.2683 18.0214 33.5242 18.7678 32.6073 18.7678C31.6892 18.7678 30.9463 18.0214 30.9463 17.1016C30.9463 16.1819 31.6904 15.4355 32.6073 15.4355C33.5255 15.4355 34.2683 16.1819 34.2683 17.1016Z" fill="#25788A"/>
<path d="M25.1895 1.5C38.1214 1.50018 48.6123 12.0171 48.6123 25C48.6123 37.9829 38.1214 48.4998 25.1895 48.5C12.2573 48.5 1.76562 37.983 1.76562 25C1.76562 12.017 12.2573 1.5 25.1895 1.5Z" stroke="#25788A" stroke-width="3"/>
</svg>
