<svg width="50" height="50" viewBox="0 0 50 50" fill="none" xmlns="http://www.w3.org/2000/svg">
<path d="M25.0273 11.1289C27.8537 11.1289 28.8215 11.1381 29.749 11.1709L30.7305 11.2119C31.9831 11.2692 32.8711 11.4489 33.627 11.708L33.9434 11.8242C34.7971 12.1563 35.5119 12.594 36.2314 13.3135C36.8612 13.9432 37.2756 14.5694 37.5918 15.2881L37.7217 15.6016C38.0026 16.3257 38.2103 17.1476 38.3018 18.2998L38.333 18.8154C38.4001 20.2854 38.417 20.7489 38.417 24.5186C38.417 27.3455 38.4078 28.3131 38.375 29.2402L38.333 30.2217C38.2676 31.6531 38.0426 32.6085 37.7217 33.4346C37.3896 34.2884 36.9511 35.004 36.2314 35.7236C35.602 36.353 34.9762 36.7669 34.2578 37.083L33.9434 37.2129C33.2192 37.4938 32.3974 37.7016 31.2451 37.793L30.7305 37.8252C29.2603 37.8923 28.7958 37.9082 25.0273 37.9082C22.1997 37.9082 21.232 37.899 20.3047 37.8662L19.3232 37.8252C18.0706 37.7679 17.1826 37.5882 16.4268 37.3291L16.1104 37.2129C15.3633 36.9223 14.7224 36.551 14.0918 35.9805L13.8223 35.7236C13.1923 35.0926 12.779 34.467 12.4639 33.749L12.334 33.4355C12.0529 32.7112 11.8453 31.889 11.7539 30.7363L11.7217 30.2217C11.6546 28.7516 11.6387 28.2882 11.6387 24.5186C11.6387 21.6907 11.6478 20.7233 11.6807 19.7959L11.7217 18.8154C11.779 17.5624 11.9586 16.674 12.2178 15.918L12.334 15.6016C12.6648 14.7482 13.1026 14.0331 13.8223 13.3135C14.452 12.6838 15.0782 12.2702 15.7969 11.9541L16.1104 11.8242C16.8345 11.5433 17.6563 11.3356 18.8086 11.2441L19.3232 11.2119C20.7935 11.1448 21.2586 11.1289 25.0273 11.1289ZM25.0273 12.6309C22.245 12.6309 21.2967 12.6384 20.374 12.6709L19.3916 12.7129C18.1595 12.7689 17.4016 12.9575 16.8701 13.1445L16.6553 13.2246C15.9421 13.5015 15.4209 13.8408 14.8857 14.376C14.4175 14.8442 14.0996 15.3019 13.8418 15.8857L13.7344 16.1445V16.1455C13.5262 16.6836 13.2867 17.4718 13.2227 18.8809C13.1545 20.3571 13.1406 20.8056 13.1406 24.5156C13.1406 27.2983 13.1493 28.2465 13.1816 29.1689L13.2227 30.1504C13.2787 31.384 13.4691 32.1421 13.6553 32.6729L13.7344 32.8867V32.8877C13.9767 33.5118 14.2669 33.9889 14.6943 34.457L14.8857 34.6572H14.8867C15.3557 35.125 15.8127 35.4434 16.3965 35.7012L16.6553 35.8086C17.1273 35.9924 17.7903 36.1978 18.8926 36.2891L19.3926 36.3203C20.8683 36.3872 21.3166 36.4023 25.0273 36.4023C27.8105 36.4023 28.7581 36.3937 29.6807 36.3613L30.6611 36.3203C31.8942 36.2643 32.6529 36.0758 33.1846 35.8887L33.3984 35.8086C34.0226 35.5662 34.4996 35.276 34.9678 34.8486L35.168 34.6572C35.6377 34.1874 35.9554 33.7295 36.2129 33.1455L36.3193 32.8877C36.5032 32.4157 36.7086 31.7527 36.7998 30.6504L36.8311 30.1504C36.898 28.6747 36.9131 28.2263 36.9131 24.5156C36.9131 21.7325 36.9045 20.7849 36.8721 19.8623L36.8311 18.8818C36.7751 17.6494 36.5865 16.891 36.3994 16.3594L36.3193 16.1445C36.077 15.5216 35.7876 15.0442 35.3604 14.5762L35.168 14.376C34.6985 13.9065 34.2407 13.5894 33.6572 13.332L33.3984 13.2246C32.859 13.0146 32.0698 12.7769 30.6611 12.7129H30.6621C29.1859 12.6447 28.7374 12.6309 25.0273 12.6309Z" fill="#0597F2" stroke="#0597F2"/>
<path d="M25.0273 17.8848C28.6895 17.8848 31.6592 20.8544 31.6592 24.5166C31.6591 28.1787 28.6895 31.1484 25.0273 31.1484C21.3651 31.1484 18.3956 28.1788 18.3955 24.5166C18.3955 20.8543 21.3651 17.8848 25.0273 17.8848ZM25.0273 19.3857C22.1949 19.3857 19.8975 21.6831 19.8975 24.5156C19.8977 27.3479 22.195 29.6445 25.0273 29.6445C27.8596 29.6444 30.156 27.3479 30.1562 24.5156C30.1562 21.6832 27.8598 19.3858 25.0273 19.3857Z" fill="#0597F2" stroke="#0597F2"/>
<path d="M32.4404 15.9355C33.085 15.9355 33.6064 16.4578 33.6064 17.1016C33.6064 17.7452 33.084 18.2676 32.4404 18.2676C31.7959 18.2675 31.2744 17.7454 31.2744 17.1016C31.2745 16.458 31.7969 15.9356 32.4404 15.9355Z" fill="#0597F2" stroke="#0597F2"/>
<circle cx="25" cy="25" r="23.5" stroke="#0597F2" stroke-width="3"/>
</svg>
