<svg width="38" height="38" viewBox="0 0 38 38" fill="none" xmlns="http://www.w3.org/2000/svg">
<circle cx="19" cy="19" r="19" fill="#007893" fill-opacity="0.6"/>
<path d="M25.2081 25.9222L24.1438 26.9864C23.9537 27.1756 23.397 27.2951 23.3803 27.2951C20.011 27.3235 16.7672 26.0006 14.3833 23.6163C11.9926 21.2261 10.6681 17.9697 10.7048 14.5908C10.7048 14.5888 10.8269 14.0479 11.0165 13.8597L12.0808 12.7945C12.4714 12.4044 13.2191 12.228 13.7429 12.4025L13.9673 12.4779C14.4912 12.6523 15.0385 13.2305 15.1835 13.7626L15.7196 15.7294C15.8651 16.2626 15.6696 17.021 15.2796 17.4111L14.5681 18.1225C15.2659 20.7087 17.294 22.7362 19.8788 23.435L20.5903 22.7235C20.9804 22.3334 21.7408 22.1384 22.274 22.2835L24.2409 22.8205C24.7721 22.9646 25.3503 23.5113 25.5257 24.0356L25.6002 24.26C25.7745 24.7844 25.5982 25.5322 25.2081 25.9222ZM19.7357 19.2672H20.7392C20.7392 18.1588 19.8406 17.2602 18.7322 17.2602V18.2637C19.2853 18.2637 19.7357 18.7145 19.7357 19.2672ZM23.7498 19.2672C23.7498 16.4958 21.5036 14.2497 18.7322 14.2497V15.2532C20.946 15.2532 22.7463 17.0544 22.7463 19.2672H23.7498ZM18.7322 11.2393V12.2427C22.6052 12.2427 25.7569 15.3943 25.7569 19.2672H26.7604C26.7604 14.8338 23.1658 11.2393 18.7322 11.2393Z" fill="white"/>
</svg>
