<svg width="30" height="30" viewBox="0 0 30 30" fill="none" xmlns="http://www.w3.org/2000/svg">
<path d="M27.0996 27.4339L25.1109 29.4224C24.7557 29.7757 23.7157 29.9992 23.6845 29.9992C17.3892 30.0522 11.3284 27.5805 6.87428 23.1255C2.40742 18.6597 -0.0672829 12.5753 0.00139211 6.26202C0.00139211 6.25832 0.229391 5.24764 0.583723 4.89608L2.57231 2.90577C3.30201 2.17705 4.69907 1.84746 5.6778 2.17335L6.09712 2.31433C7.07585 2.64023 8.09848 3.72052 8.36949 4.71473L9.37107 8.38955C9.64296 9.38564 9.27767 10.8028 8.54891 11.5315L7.21953 12.8608C8.5233 17.6929 12.3127 21.4812 17.1422 22.7867L18.4716 21.4573C19.2004 20.7285 20.6213 20.3642 21.6174 20.6352L25.2925 21.6386C26.2849 21.9078 27.3653 22.9294 27.6931 23.909L27.8322 24.3283C28.1579 25.3081 27.8284 26.7051 27.0996 27.4339ZM16.8748 14.9996H18.7498C18.7498 12.9287 17.0708 11.2497 14.9998 11.2497V13.1246C16.0334 13.1246 16.8748 13.9668 16.8748 14.9996ZM24.3749 14.9996C24.3749 9.82146 20.1781 5.62481 14.9998 5.62481V7.49981C19.1362 7.49981 22.4999 10.8652 22.4999 14.9996H24.3749ZM14.9998 0V1.87494C22.2362 1.87494 28.125 7.76342 28.125 14.9996H30C30 6.71612 23.2836 0 14.9998 0Z" fill="#25788A"/>
</svg>
