<svg width="31" height="30" viewBox="0 0 31 30" fill="none" xmlns="http://www.w3.org/2000/svg">
<path d="M27.2398 27.4339L25.2572 29.4224C24.9031 29.7757 23.8662 29.9992 23.8352 29.9992C17.5592 30.0522 11.5168 27.5805 7.07639 23.1255C2.6232 18.6597 0.156068 12.5753 0.224532 6.26202C0.224532 6.25832 0.451833 5.24764 0.805081 4.89608L2.78758 2.90577C3.51505 2.17705 4.90783 1.84746 5.88357 2.17335L6.3016 2.31433C7.27734 2.64023 8.29684 3.72052 8.56702 4.71473L9.56554 8.38955C9.8366 9.38564 9.47242 10.8028 8.74589 11.5315L7.42058 12.8608C8.72036 17.6929 12.4981 21.4812 17.3129 22.7867L18.6382 21.4573C19.3648 20.7285 20.7813 20.3642 21.7744 20.6352L25.4382 21.6386C26.4276 21.9078 27.5047 22.9294 27.8314 23.909L27.9702 24.3283C28.2949 25.3081 27.9663 26.7051 27.2398 27.4339ZM17.0463 14.9996H18.9156C18.9156 12.9287 17.2417 11.2497 15.177 11.2497V13.1246C16.2074 13.1246 17.0463 13.9668 17.0463 14.9996ZM24.5235 14.9996C24.5235 9.82146 20.3395 5.62481 15.177 5.62481V7.49981C19.3007 7.49981 22.6542 10.8652 22.6542 14.9996H24.5235ZM15.177 0V1.87494C22.3913 1.87494 28.262 7.76342 28.262 14.9996H30.1313C30.1313 6.71612 23.4355 0 15.177 0Z" fill="#25788A"/>
</svg>
