<svg width="50" height="50" viewBox="0 0 50 50" fill="none" xmlns="http://www.w3.org/2000/svg">
<path d="M25.5732 11.1289C32.9535 11.1289 38.9379 16.9171 39.1211 24.1104V24.1201L39.1221 24.1289C39.1282 24.2276 39.1279 24.3288 39.1279 24.4482L39.124 24.792C38.9389 31.9834 32.9518 37.7695 25.5732 37.7695C23.1981 37.7695 20.9645 37.1658 19.0225 36.1094L18.8359 36.0078L18.6338 36.0723L11.792 38.2266L14.0059 31.75L14.082 31.5283L13.959 31.3271C12.7286 29.3167 12.0196 26.9685 12.0195 24.4502C12.0195 24.2591 12.0259 24.0686 12.0322 23.8652C12.3492 16.7853 18.2824 11.1291 25.5732 11.1289ZM25.5732 12.332C19.3944 12.3322 14.2537 16.8371 13.3887 22.7012L13.3184 23.2734C13.277 23.6617 13.2568 24.0563 13.2568 24.4502C13.2569 27.0095 14.0694 29.3835 15.4502 31.3418L14.0596 35.416L13.7402 36.3525L14.6836 36.0547L19.0029 34.6895C20.9085 35.8804 23.1587 36.5663 25.5732 36.5664C32.3553 36.5664 37.8906 31.1413 37.8906 24.4482L37.8799 23.9717L37.8496 23.499C37.3532 17.2522 32.0328 12.332 25.5732 12.332Z" fill="#25788A" stroke="#0597F2"/>
<path d="M20.8438 18.6387C20.9386 18.6387 21.037 18.6452 21.1494 18.6533C21.2547 18.6609 21.3823 18.6709 21.5029 18.6709C21.5482 18.6709 21.5926 18.6676 21.6162 18.666C21.6419 18.6643 21.6563 18.6633 21.668 18.6631C21.6815 18.6767 21.7065 18.7046 21.7383 18.7598L21.8174 18.9248L21.8193 18.9287C21.9632 19.2653 22.2065 19.8492 22.4268 20.374C22.6397 20.8814 22.845 21.3666 22.8984 21.4727C22.9288 21.5329 22.9361 21.563 22.9375 21.5762C22.938 21.581 22.9369 21.5839 22.9365 21.5859L22.9268 21.6113L22.8203 21.8242C22.7934 21.8753 22.767 21.9187 22.7393 21.9629C22.7078 22.0046 22.6761 22.0469 22.6396 22.0938C22.5488 22.195 22.457 22.3057 22.3789 22.3984C22.2905 22.5033 22.2188 22.5863 22.1582 22.6465C22.0857 22.7178 21.9133 22.8797 21.8271 23.1084C21.7229 23.3853 21.767 23.6731 21.9258 23.9453C22.1346 24.3033 22.8629 25.4626 23.9404 26.4072V26.4082C24.9759 27.3217 25.916 27.7717 26.4424 28L26.8193 28.1631L26.8232 28.165C27.0281 28.2647 27.2699 28.3491 27.5303 28.3184C27.7416 28.2933 27.9087 28.2003 28.042 28.085L28.165 27.9639C28.308 27.8034 28.7317 27.3186 29.041 26.9297L29.2979 26.5889V26.5879L29.3252 26.5547L29.4863 26.6064L29.4951 26.6094C29.6214 26.6538 30.09 26.8709 30.6104 27.1182C31.114 27.3575 31.6227 27.6047 31.7969 27.6895V27.6885C31.8854 27.7321 31.9674 27.7714 32.0352 27.8037C32.1064 27.8377 32.1602 27.8642 32.2041 27.8877C32.2102 27.8909 32.2155 27.8946 32.2207 27.8975C32.2237 27.9587 32.2243 28.0437 32.2148 28.1494C32.1986 28.3317 32.1592 28.5594 32.0859 28.8105L32.001 29.0684L31.999 29.0732C31.9158 29.3066 31.6154 29.6197 31.1709 29.9023C30.7883 30.1456 30.4123 30.2953 30.1914 30.3398L30.1064 30.3525H30.1006C29.9095 30.3704 29.7037 30.4287 29.627 30.4443C29.5278 30.4646 29.4086 30.4803 29.2031 30.4609C28.8152 30.4243 28.1376 30.2648 26.8018 29.7744L26.1875 29.543C23.2668 28.4052 21.2829 25.675 20.6895 24.8252L20.5215 24.5859C20.4016 24.4301 19.7814 23.6118 19.4404 22.6084L19.376 22.4043C19.2794 22.063 19.2188 21.7217 19.2188 21.3916C19.2188 20.2981 19.6444 19.6339 19.9893 19.2285L20.2881 18.9033C20.4928 18.6846 20.7251 18.6388 20.8438 18.6387Z" fill="#0597F2" stroke="#0597F2"/>
<circle cx="25" cy="25" r="23.5" stroke="#0597F2" stroke-width="3"/>
</svg>
