<svg width="50" height="50" viewBox="0 0 50 50" fill="none" xmlns="http://www.w3.org/2000/svg">
<path fill-rule="evenodd" clip-rule="evenodd" d="M39.6208 24.0973C39.4306 16.6262 33.2184 10.6284 25.5737 10.6284C18.0209 10.6284 11.8621 16.4895 11.5329 23.8426C11.5267 24.0445 11.5193 24.2463 11.5193 24.4493C11.5193 27.0635 12.256 29.5018 13.5329 31.588L11 39L18.7837 36.5484C20.7973 37.6437 23.1129 38.2691 25.5737 38.2691C33.3376 38.2691 39.6281 32.0819 39.6281 24.4482C39.6281 24.3312 39.6281 24.2143 39.6208 24.0973ZM25.5737 36.0659C23.1724 36.0659 20.9415 35.3618 19.0732 34.1432L14.5329 35.5772L16.0063 31.2618C14.5915 29.3454 13.7565 26.9921 13.7565 24.4493C13.7565 24.0714 13.7764 23.6934 13.8161 23.3218C14.395 17.441 19.4483 12.8316 25.5737 12.8316C31.7785 12.8316 36.8778 17.558 37.3512 23.5423C37.3773 23.8426 37.3909 24.1418 37.3909 24.4482C37.3909 30.857 32.0878 36.0659 25.5737 36.0659Z" fill="#25788A"/>
<path fill-rule="evenodd" clip-rule="evenodd" d="M32.0155 27.2394C31.6665 27.0696 29.9758 26.2485 29.6603 26.1378C29.3447 26.0208 29.1138 25.968 28.8839 26.3075C28.654 26.6461 27.9894 27.4092 27.7919 27.6307C27.5882 27.8585 27.3907 27.8854 27.0416 27.7156C26.7 27.5458 25.5871 27.1938 24.2716 26.0332C23.2517 25.1397 22.5547 24.0319 22.3572 23.6933C22.1597 23.3547 22.3374 23.1715 22.5087 23.0027C22.6665 22.8464 22.8504 22.6052 23.0281 22.4095C23.0741 22.3505 23.1138 22.2987 23.1535 22.2459C23.2329 22.1216 23.2914 22.0046 23.3708 21.8411C23.4889 21.6133 23.4304 21.4176 23.3447 21.2478C23.259 21.078 22.5683 19.409 22.2789 18.7319C21.9957 18.0538 21.7062 18.1708 21.5025 18.1708C21.305 18.1708 21.0751 18.1387 20.8441 18.1387C20.6143 18.1387 20.2391 18.2236 19.9225 18.5621C19.607 18.9007 18.7188 19.7228 18.7188 21.3917C18.7188 21.7831 18.7909 22.1734 18.8964 22.5451C19.2454 23.7378 19.9957 24.7224 20.1263 24.8922C20.2977 25.1138 22.5077 28.6475 26.0082 30.01C29.515 31.359 29.515 30.9097 30.1472 30.8507C30.7783 30.7989 32.1869 30.0358 32.4701 29.2407C32.7595 28.4518 32.7595 27.7736 32.6739 27.6307C32.5871 27.493 32.3572 27.4081 32.0155 27.2394Z" fill="#25788A"/>
<circle cx="25" cy="25" r="23.5" stroke="#25788A" stroke-width="3"/>
</svg>
