<svg width="51" height="50" viewBox="0 0 51 50" fill="none" xmlns="http://www.w3.org/2000/svg">
<path fill-rule="evenodd" clip-rule="evenodd" d="M39.7656 24.0977C39.576 16.6267 33.3829 10.6289 25.7615 10.6289C18.2318 10.6289 12.0919 16.49 11.7637 23.843C11.7575 24.0449 11.7502 24.2468 11.7502 24.4498C11.7502 27.064 12.4846 29.5022 13.7576 31.5885L11.2324 39.0005L18.9923 36.5488C20.9997 37.6442 23.3082 38.2696 25.7615 38.2696C33.5016 38.2696 39.7729 32.0823 39.7729 24.4487C39.7729 24.3317 39.7729 24.2147 39.7656 24.0977ZM25.7615 36.0664C23.3676 36.0664 21.1435 35.3623 19.2809 34.1437L14.7545 35.5777L16.2234 31.2623C14.8129 29.3459 13.9805 26.9926 13.9805 24.4498C13.9805 24.0719 14.0003 23.6939 14.0399 23.3222C14.617 17.4415 19.6549 12.8321 25.7615 12.8321C31.9473 12.8321 37.031 17.5585 37.5029 23.5428C37.529 23.843 37.5425 24.1423 37.5425 24.4487C37.5425 30.8575 32.2557 36.0664 25.7615 36.0664Z" fill="#25788A"/>
<path fill-rule="evenodd" clip-rule="evenodd" d="M32.1829 27.2394C31.8349 27.0696 30.1494 26.2485 29.8348 26.1378C29.5202 26.0208 29.2899 25.968 29.0608 26.3075C28.8316 26.6461 28.1691 27.4092 27.9722 27.6307C27.769 27.8585 27.5721 27.8854 27.2242 27.7156C26.8835 27.5458 25.7741 27.1938 24.4626 26.0332C23.4458 25.1397 22.751 24.0319 22.5541 23.6933C22.3572 23.3547 22.5343 23.1715 22.7052 23.0027C22.8625 22.8464 23.0458 22.6052 23.2229 22.4095C23.2687 22.3505 23.3083 22.2987 23.3479 22.2459C23.4271 22.1216 23.4854 22.0046 23.5646 21.8411C23.6823 21.6133 23.6239 21.4176 23.5385 21.2478C23.4531 21.078 22.7645 19.409 22.476 18.7319C22.1937 18.0538 21.9051 18.1708 21.7019 18.1708C21.5051 18.1708 21.2759 18.1387 21.0456 18.1387C20.8165 18.1387 20.4425 18.2236 20.1268 18.5621C19.8122 18.9007 18.9268 19.7228 18.9268 21.3917C18.9268 21.7831 18.9987 22.1734 19.1039 22.5451C19.4518 23.7378 20.1998 24.7224 20.33 24.8922C20.5008 25.1138 22.7041 28.6475 26.1939 30.01C29.69 31.359 29.69 30.9097 30.3202 30.8507C30.9495 30.7989 32.3537 30.0358 32.636 29.2407C32.9246 28.4518 32.9246 27.7736 32.8392 27.6307C32.7527 27.493 32.5235 27.4081 32.1829 27.2394Z" fill="#25788A"/>
<path d="M25.1895 1.5C38.1214 1.50018 48.6123 12.0171 48.6123 25C48.6123 37.9829 38.1214 48.4998 25.1895 48.5C12.2573 48.5 1.76562 37.983 1.76562 25C1.76562 12.017 12.2573 1.5 25.1895 1.5Z" stroke="#25788A" stroke-width="3"/>
</svg>
